<svg xmlns="http://www.w3.org/2000/svg" viewBox="0 0 207 144"><defs><style>.cls-1{fill:#352929;}.cls-2{fill:#fff;}</style></defs><g id="Calque_2" data-name="Calque 2"><g id="Calque_1-2" data-name="Calque 1"><path class="cls-1" d="M207,72a72.25,72.25,0,0,1-.56,9,71.2,71.2,0,0,1-4.68,18,72,72,0,0,1-4.39,9,72.55,72.55,0,0,1-14.76,18,70.77,70.77,0,0,1-12.74,9,72.05,72.05,0,0,1-69.74,0A72.43,72.43,0,0,1,74,110.26,72.14,72.14,0,0,1,63.56,63a71.16,71.16,0,0,1,4.68-18A69.29,69.29,0,0,1,72,37.13c.2-.38.42-.75.63-1.13A72.55,72.55,0,0,1,87.39,18a70.77,70.77,0,0,1,12.74-9,72.05,72.05,0,0,1,69.74,0A72.51,72.51,0,0,1,191.2,27a71.26,71.26,0,0,1,6.17,9,72,72,0,0,1,4.39,9,71.2,71.2,0,0,1,4.68,18A72.25,72.25,0,0,1,207,72Z"/><path class="cls-2" d="M181.64,27H69.24A72.51,72.51,0,0,1,90.57,9h69.74a72.51,72.51,0,0,1,21.33,18Z"/><path class="cls-2" d="M196.88,63H54a71.16,71.16,0,0,1,4.68-18H192.2a71.2,71.2,0,0,1,4.68,18Z"/><path class="cls-2" d="M196.88,81a71.2,71.2,0,0,1-4.68,18H58.68A71.27,71.27,0,0,1,54,81Z"/><path class="cls-2" d="M181.64,117a72.51,72.51,0,0,1-21.33,18H90.57a72.51,72.51,0,0,1-21.33-18Z"/><circle class="cls-2" cx="72" cy="72" r="67"/><path class="cls-1" d="M72,10A62,62,0,1,1,10,72,62.07,62.07,0,0,1,72,10M72,0a72,72,0,1,0,72,72A72,72,0,0,0,72,0Z"/><polygon class="cls-1" points="50.02 59.04 33.87 51.14 50.02 43.45 66.17 51.14 50.02 59.04"/><polygon class="cls-1" points="93.98 59.04 77.83 51.14 93.98 43.45 110.13 51.14 93.98 59.04"/><polygon class="cls-1" points="63.75 29.65 71.65 13.5 79.34 29.65 71.65 45.8 63.75 29.65"/><path class="cls-1" d="M96.73,108.9l-9-2.26,0,8.88-6.15-4.91L72.08,130.5,62.54,111l-6.08,4.51.3-8.85L46.43,109,54,93.47l.32-.67,17.8-36.4v0l.06.11.08.18.12.24.14.31.18.37.2.42.23.48.25.54.28.58.3.63.32.67.34.72.36.75.37.79.4.82.4.85.42.88.43.91.44.93.45.94.46,1,.47,1,.47,1,.47,1,.48,1,.48,1,.47,1,.48,1,.47,1,.48,1,.46,1,.46,1,.45,1,.44.93.43.9.42.88.41.86.39.82.38.79.35.76.35.71.32.68.3.63.27.58.26.53.23.49.2.42.18.37L89,92l.12.24a2.59,2.59,0,0,0,.19.35s0,0,0,0c.14.3.27.59.4.89l.28.6.33.73.37.83.42.91.44,1,.47,1,.49,1.07.49,1.09.49,1.09.49,1.07.47,1,.44,1,.42.91.37.83.33.72.27.6.2.46.14.3Z"/></g></g></svg>