<?xml version="1.0" encoding="utf-8"?>
<!-- Generator: Adobe Illustrator 25.1.0, SVG Export Plug-In . SVG Version: 6.00 Build 0)  -->
<svg version="1.1" id="Calque_1" xmlns="http://www.w3.org/2000/svg" xmlns:xlink="http://www.w3.org/1999/xlink" x="0px" y="0px"
	 viewBox="0 0 872.6 194.4" style="enable-background:new 0 0 872.6 194.4;" xml:space="preserve">
<style type="text/css">
	.st0{fill:#FFFFFF;}
	.st1{fill:#352929;}
	.st2{fill:none;}
	.st3{font-family:'Bretagne';}
	.st4{font-size:114px;}
	.st5{font-size:60px;}
</style>
<g id="Calque_2_1_">
	<g id="Calque_1-2">
		<path class="st0" d="M207,72c0,3-0.2,6-0.6,9c-0.8,6.2-2.3,12.2-4.7,18c-1.3,3.1-2.7,6.1-4.4,9c-3.9,6.8-8.9,12.8-14.8,18
			c-3.9,3.5-8.2,6.5-12.7,9c-21.7,12-48,12-69.7,0c-10.7-5.9-19.6-14.4-26.1-24.7C65.2,96.2,61.5,79.5,63.6,63
			c0.8-6.2,2.3-12.2,4.7-18c1.1-2.7,2.3-5.3,3.8-7.9c0.2-0.4,0.4-0.8,0.6-1.1c3.9-6.8,8.9-12.8,14.8-18c3.9-3.5,8.2-6.5,12.7-9
			c21.7-12,48-12,69.7,0c8.2,4.6,15.5,10.7,21.3,18c2.3,2.8,4.3,5.8,6.2,9c1.7,2.9,3.1,5.9,4.4,9c2.3,5.8,3.9,11.8,4.7,18
			C206.8,66,207,69,207,72z"/>
		<path class="st1" d="M177.3,30.2H68.5c5.7-6.8,12.7-12.5,20.6-16.7h67.5C164.6,17.7,171.6,23.4,177.3,30.2z"/>
		<path class="st1" d="M192,63.6H53.7c0.7-5.7,2.3-11.4,4.5-16.7h129.2C189.7,52.3,191.3,57.9,192,63.6L192,63.6z"/>
		<path class="st1" d="M192,80.4c-0.7,5.7-2.3,11.4-4.5,16.7H58.3c-2.3-5.4-3.8-11-4.5-16.7C53.8,80.4,192,80.4,192,80.4z"/>
		<path class="st1" d="M177.3,113.8c-5.7,6.8-12.7,12.5-20.6,16.7H89.1c-7.9-4.2-15-9.9-20.6-16.7H177.3z"/>
		<circle class="st1" cx="72" cy="72" r="67"/>
		<path class="st0" d="M72,10c34.2,0,62,27.8,62,62s-27.8,62-62,62s-62-27.8-62-62S37.8,10,72,10 M72,0C32.2,0,0,32.2,0,72
			s32.2,72,72,72s72-32.2,72-72S111.8,0,72,0z"/>
		<polygon class="st0" points="50,59 33.9,51.1 50,43.5 66.2,51.1 		"/>
		<polygon class="st0" points="94,59 77.8,51.1 94,43.5 110.1,51.1 		"/>
		<polygon class="st0" points="63.8,29.6 71.7,13.5 79.3,29.6 71.7,45.8 		"/>
		<path class="st0" d="M96.7,108.9l-9-2.3v8.9l-6.2-4.9L72,130.5L62.5,111l-6.1,4.5l0.3-8.8L46.4,109L54,93.5l0.3-0.7l17.8-36.4l0,0
			l0.1,0.1l0.1,0.2l0.1,0.2l0.1,0.3l0.2,0.4l0.2,0.4l0.2,0.5l0.3,0.5l0.3,0.6l0.3,0.6l0.3,0.7l0.3,0.7l0.4,0.8l0.4,0.8l0.4,0.8
			l0.4,0.8l0.4,0.9l0.4,0.9l0.4,0.9l0.4,0.9l0.5,1l0.5,1l0.5,1l0.5,1l0.5,1l0.5,1l0.5,1l0.5,1l0.5,1l0.5,1l0.5,1l0.5,1l0.4,1
			l0.4,0.9l0.4,0.9l0.4,0.9l0.4,0.9l0.4,0.8l0.4,0.8l0.3,0.8l0.3,0.7l0.3,0.7l0.3,0.6l0.3,0.6l0.3,0.5l0.2,0.5l0.2,0.4l0.2,0.4V92
			l0.1,0.2c0.1,0.1,0.1,0.2,0.2,0.3l0,0c0.1,0.3,0.3,0.6,0.4,0.9L90,94l0.3,0.7l0.4,0.8l0.4,0.9l0.4,1l0.5,1l0.5,1.1l0.5,1.1
			l0.5,1.1l0.5,1.1l0.5,1l0.4,1l0.4,0.9l0.4,0.8l0.3,0.7l0.3,0.6l0.2,0.5l0.1,0.3L96.7,108.9z"/>
	</g>
</g>
<rect x="216.2" y="60.3" class="st2" width="722.6" height="88.5"/>
<text transform="matrix(1 0 0 1 216.1698 138.3187)" class="st0 st3 st4">CDC</text>
<text transform="matrix(1 0 0 1 432.0698 138.3187)" class="st3 st5"> </text>
<text transform="matrix(1 0 0 1 464.6698 138.3187)" class="st0 st3 st4">Rennes</text>
</svg>
