<svg xmlns="http://www.w3.org/2000/svg" viewBox="0 0 288 288"><defs><style>.cls-1{fill:#2caaff;}.cls-2{fill:#c9c9c9;}.cls-3{fill:#00a4ff;stroke:#fff;stroke-linecap:round;stroke-miterlimit:10;stroke-width:12px;}</style></defs><g id="Calque_2" data-name="Calque 2"><g id="Calque_1-2" data-name="Calque 1"><path class="cls-1" d="M288,144A144,144,0,1,1,0,144c0-.7,0-1.4,0-2.1A144,144,0,0,1,286.75,125h0A143.88,143.88,0,0,1,288,144Z"/><path class="cls-2" d="M146,157.35c0,16.43-16.08,30.72-39.75,38q-2.43.75-5,1.4a124.79,124.79,0,0,1-30.75,3.73,126.88,126.88,0,0,1-26-2.63C27.08,194.19,12.66,187,4,177.74A144.27,144.27,0,0,1,0,144c0-.7,0-1.4,0-2.1,8.44-12.58,26.9-22.31,49.79-26a128.93,128.93,0,0,1,20.68-1.64h1.35a119.73,119.73,0,0,1,38,6.29C131.48,128.1,146,141.76,146,157.35Z"/><ellipse class="cls-2" cx="118.85" cy="128.38" rx="70.23" ry="68.06"/><ellipse class="cls-2" cx="178.29" cy="71.1" rx="53.9" ry="43.12"/><ellipse class="cls-2" cx="178.29" cy="164.32" rx="86.24" ry="72.09"/><ellipse class="cls-2" cx="216.47" cy="112.21" rx="38.48" ry="41.11"/><path class="cls-2" d="M288,144a144.48,144.48,0,0,1-2.17,25c-6.08,5.68-14.39,10.49-24.24,14a119.84,119.84,0,0,1-40.17,6.61,131.49,131.49,0,0,1-13.16-.65c-15.61-1.57-29.57-5.88-40.29-12-13.61-7.8-22-18.56-22-30.44,0-13,10.13-24.73,26.13-32.63.93-.45,1.87-.9,2.83-1.32s2-.9,3.09-1.32c2.56-1,5.24-2,8-2.81a118.7,118.7,0,0,1,27.6-4.81q3.85-.23,7.8-.23c1.06,0,2.12,0,3.17,0a121.7,121.7,0,0,1,30.16,4.39c13.39,3.77,24.54,9.74,32,17.09h0A143.88,143.88,0,0,1,288,144Z"/><ellipse class="cls-2" cx="122.67" cy="171.21" rx="86.24" ry="72.09"/><line class="cls-3" x1="107.96" y1="189.3" x2="71.96" y2="252.3"/><line class="cls-3" x1="162.24" y1="188.91" x2="126.24" y2="251.91"/><line class="cls-3" x1="216.24" y1="188.91" x2="180.24" y2="251.91"/></g></g></svg>