<svg xmlns="http://www.w3.org/2000/svg" viewBox="0 0 938.8 181.3">
	<defs>
		<style>
			.cls-1,
			.cls-4 {
			fill: #fff;
			}
			
			.cls-2 {
			fill: #352929;
			}
			
			.cls-3 {
			fill: none;
			}
			
			.cls-4 {
			font-size: 114px;
			}
			
			.cls-4,
			.cls-5 {
			font-family: Bretagne;
			}
			
			.cls-5 {
			isolation: isolate;
			font-size: 60px;
			}
		</style>
	</defs>
	<g id="Calque_2" data-name="Calque 2">
		<g id="Calque_1-2" data-name="Calque 1">
			<g id="Calque_2-2" data-name="Calque 2">
				<g id="Calque_1-2-2" data-name="Calque 1-2">
					<path class="cls-1" d="M207,72a68,68,0,0,1-.6,9,70.26,70.26,0,0,1-4.7,18,74.89,74.89,0,0,1-4.4,9,71.16,71.16,0,0,1-14.8,18,69.67,69.67,0,0,1-12.7,9A71.91,71.91,0,0,1,63.6,63a70.26,70.26,0,0,1,4.7-18,63.51,63.51,0,0,1,3.8-7.9,10.91,10.91,0,0,1,.6-1.1A71.16,71.16,0,0,1,87.5,18a69.67,69.67,0,0,1,12.7-9,72.29,72.29,0,0,1,97.2,27,72,72,0,0,1,9.1,27C206.8,66,207,69,207,72Z" />
					<path class="cls-2" d="M177.3,30.2H68.5A69.48,69.48,0,0,1,89.1,13.5h67.5A68.65,68.65,0,0,1,177.3,30.2Z" />
					<path class="cls-2" d="M192,63.6H53.7a64.52,64.52,0,0,1,4.5-16.7H187.4A62,62,0,0,1,192,63.6Z" />
					<path class="cls-2" d="M192,80.4a64.52,64.52,0,0,1-4.5,16.7H58.3a61.74,61.74,0,0,1-4.5-16.7Z" />
					<path class="cls-2" d="M177.3,113.8a69.48,69.48,0,0,1-20.6,16.7H89.1a68.24,68.24,0,0,1-20.6-16.7Z" />
					<circle class="cls-2" cx="72" cy="72" r="67" />
					<path class="cls-1" d="M72,10A62,62,0,1,1,10,72,62.05,62.05,0,0,1,72,10M72,0a72,72,0,1,0,72,72A72,72,0,0,0,72,0Z" />
					<polygon class="cls-1" points="50 59 33.9 51.1 50 43.5 66.2 51.1 50 59" />
					<polygon class="cls-1" points="94 59 77.8 51.1 94 43.5 110.1 51.1 94 59" />
					<polygon class="cls-1" points="63.8 29.6 71.7 13.5 79.3 29.6 71.7 45.8 63.8 29.6" />
					<path class="cls-1" d="M96.7,108.9l-9-2.3v8.9l-6.2-4.9L72,130.5,62.5,111l-6.1,4.5.3-8.8L46.4,109,54,93.5l.3-.7L72.1,56.4h0l.1.1.1.2.1.2.1.3.2.4.2.4.2.5.3.5.3.6.3.6.3.7.3.7.4.8.4.8.4.8.4.8.4.9.4.9.4.9.4.9.5,1,.5,1,.5,1,.5,1,.5,1,.5,1,.5,1,.5,1,.5,1,.5,1,.5,1,.5,1,.4,1,.4.9.4.9.4.9.4.9.4.8.4.8.3.8.3.7.3.7.3.6.3.6.3.5.2.5.2.4.2.4V92l.1.2c.1.1.1.2.2.3h0c.1.3.3.6.4.9l.3.6.3.7.4.8.4.9.4,1,.5,1,.5,1.1.5,1.1.5,1.1.5,1.1.5,1,.4,1,.4.9.4.8.3.7.3.6.2.5.1.3Z" />
				</g>
			</g>
			<rect class="cls-3" x="216.2" y="60.3" width="722.6" height="88.5" />
			<text class="cls-4" transform="translate(216.17 138.32)">
				CDC
			</text>
			<text class="cls-5" transform="translate(432.07 138.32)">
			</text>
			<text class="cls-4" transform="translate(464.67 138.32)">
				Rennes
			</text>
		</g>
	</g>
</svg>
