<svg xmlns="http://www.w3.org/2000/svg" viewBox="0 0 221.45 220.44"><defs><style>.cls-1{fill:#2caaff;}.cls-2,.cls-3{fill:#fab900;}.cls-2{stroke:#fab900;stroke-width:13px;}.cls-2,.cls-4{stroke-linecap:round;stroke-miterlimit:10;}.cls-4{fill:none;stroke:#333;stroke-width:10px;}.cls-5{fill:#fff;}.cls-6{fill:#333;}</style></defs><g id="Calque_2" data-name="Calque 2"><g id="Calque_1-2" data-name="Calque 1"><ellipse class="cls-1" cx="110.73" cy="110.22" rx="110.73" ry="110.22"/><line class="cls-2" x1="147.14" y1="104.04" x2="200.25" y2="128.82"/><line class="cls-2" x1="148.8" y1="98.5" x2="207.13" y2="99.68"/><line class="cls-2" x1="148.06" y1="92.74" x2="201.52" y2="70.11"/><line class="cls-2" x1="145.04" y1="87.75" x2="184.38" y2="45.23"/><line class="cls-2" x1="140.26" y1="84.39" x2="158.69" y2="29.33"/><line class="cls-2" x1="134.56" y1="83.25" x2="128.89" y2="25.16"/><line class="cls-2" x1="128.92" y1="84.52" x2="100.12" y2="33.45"/><circle class="cls-3" cx="132.85" cy="98.97" r="57.64"/><line class="cls-4" x1="87" y1="148" x2="24" y2="148"/><line class="cls-4" x1="99" y1="176" x2="36" y2="176"/><line class="cls-4" x1="93" y1="92" x2="30" y2="92"/><line class="cls-4" x1="84" y1="75" x2="21" y2="75"/><line class="cls-4" x1="103" y1="56" x2="40" y2="56"/><circle class="cls-5" cx="105" cy="123" r="61.5"/><path class="cls-6" d="M105,72a51,51,0,1,1-51,51,51.06,51.06,0,0,1,51-51m0-21a72,72,0,1,0,72,72,72,72,0,0,0-72-72Z"/><circle class="cls-5" cx="105" cy="123" r="41"/><path class="cls-6" d="M105,86a37,37,0,1,1-37,37,37,37,0,0,1,37-37m0-8a45,45,0,1,0,45,45,45,45,0,0,0-45-45Z"/><circle class="cls-5" cx="105" cy="123" r="14"/><path class="cls-6" d="M105,113a10,10,0,1,1-10,10,10,10,0,0,1,10-10m0-8a18,18,0,1,0,18,18,18,18,0,0,0-18-18Z"/><rect class="cls-6" x="109.8" y="99.2" width="30" height="8" transform="translate(-36.42 118.47) rotate(-45)"/><rect class="cls-6" x="70.2" y="138.8" width="30" height="8" transform="translate(-76.02 102.07) rotate(-45)"/><rect class="cls-6" x="81.2" y="88.2" width="8" height="30" transform="translate(-48.02 90.47) rotate(-45)"/><rect class="cls-6" x="120.8" y="127.8" width="8" height="30" transform="translate(-64.42 130.07) rotate(-45)"/><rect class="cls-6" x="101" y="80" width="8" height="30"/><rect class="cls-6" x="101" y="136" width="8" height="30"/><rect class="cls-6" x="62" y="119" width="30" height="8"/><rect class="cls-6" x="118" y="119" width="30" height="8"/></g></g></svg>