<svg xmlns="http://www.w3.org/2000/svg" viewBox="0 0 144 144"><defs><style>.cls-1{fill:#fff;}.cls-2{fill:#352929;}</style></defs><g id="Calque_2" data-name="Calque 2"><g id="Calque_1-2" data-name="Calque 1"><g id="Calque_2-2" data-name="Calque 2"><g id="Calque_1-2-2" data-name="Calque 1-2"><circle class="cls-1" cx="72" cy="72" r="67"/><path class="cls-2" d="M72,10A62,62,0,1,1,10,72,62,62,0,0,1,72,10M72,0a72,72,0,1,0,72,72A72,72,0,0,0,72,0Z"/><polygon class="cls-2" points="50.02 59.04 33.87 51.14 50.02 43.45 66.17 51.14 50.02 59.04"/><polygon class="cls-2" points="93.98 59.04 77.83 51.14 93.98 43.45 110.13 51.14 93.98 59.04"/><polygon class="cls-2" points="63.75 29.65 71.65 13.5 79.34 29.65 71.65 45.8 63.75 29.65"/><path class="cls-2" d="M96.73,108.9l-9-2.26v8.88l-6.15-4.91-9.5,19.89L62.54,111l-6.08,4.51.3-8.85L46.43,109,54,93.47l.32-.67,17.8-36.4h0l.06.11.08.18.12.24.14.31.18.37.2.42.23.48.25.54.28.58.3.63.32.67.34.72.36.75.37.79.4.82.4.85.42.88.43.91.44.93.45.94.46,1,.47,1,.47,1,.47,1,.48,1,.48,1,.47,1,.48,1,.47,1,.48,1,.46,1,.46,1,.45,1,.44.93.43.9.42.88.41.86.39.82.38.79.35.76.35.71.32.68.3.63.27.58.26.53.23.49.2.42.18.37L89,92l.12.24a2.37,2.37,0,0,0,.19.35h0c.14.3.27.59.4.89l.28.6.33.73.37.83.42.91.44,1,.47,1,.49,1.07.49,1.09.49,1.09.49,1.07.47,1,.44,1,.42.91.37.83.33.72.27.6.2.46.14.3Z"/></g></g></g></g></svg>