<svg xmlns="http://www.w3.org/2000/svg" viewBox="0 0 288 288"><defs><style>.cls-1{fill:#2caaff;}.cls-2,.cls-3{fill:#fab900;}.cls-3{stroke:#fab900;stroke-linecap:round;stroke-miterlimit:10;stroke-width:13px;}.cls-4{fill:#fff;}</style></defs><g id="Calque_2" data-name="Calque 2"><g id="Calque_1-2" data-name="Calque 1"><circle class="cls-1" cx="144" cy="144" r="144"/><circle class="cls-2" cx="144" cy="144" r="81"/><line class="cls-3" x1="143.5" y1="143.5" x2="143.5" y2="44.5"/><line class="cls-3" x1="143.37" y1="143.68" x2="112.78" y2="49.53"/><line class="cls-3" x1="143.3" y1="143.89" x2="85.11" y2="63.8"/><line class="cls-3" x1="143.3" y1="144.11" x2="63.21" y2="85.92"/><line class="cls-3" x1="143.37" y1="144.32" x2="49.22" y2="113.73"/><line class="cls-3" x1="143.5" y1="144.5" x2="44.5" y2="144.5"/><line class="cls-3" x1="143.68" y1="144.63" x2="49.53" y2="175.22"/><line class="cls-3" x1="143.89" y1="144.7" x2="63.8" y2="202.89"/><line class="cls-3" x1="144.11" y1="144.7" x2="85.92" y2="224.79"/><line class="cls-3" x1="144.32" y1="144.63" x2="113.73" y2="238.78"/><line class="cls-3" x1="144.5" y1="144.5" x2="144.5" y2="243.5"/><line class="cls-3" x1="144.63" y1="144.32" x2="175.22" y2="238.47"/><line class="cls-3" x1="144.7" y1="144.11" x2="202.89" y2="224.2"/><line class="cls-3" x1="144.7" y1="143.89" x2="224.79" y2="202.08"/><line class="cls-3" x1="144.63" y1="143.68" x2="238.78" y2="174.27"/><line class="cls-3" x1="144.5" y1="143.5" x2="243.5" y2="143.5"/><line class="cls-3" x1="144.32" y1="143.37" x2="238.47" y2="112.78"/><line class="cls-3" x1="144.11" y1="143.3" x2="224.2" y2="85.11"/><line class="cls-3" x1="143.89" y1="143.3" x2="202.08" y2="63.21"/><line class="cls-3" x1="143.68" y1="143.37" x2="174.27" y2="49.22"/><ellipse class="cls-4" cx="81.02" cy="188.98" rx="63" ry="36"/><ellipse class="cls-4" cx="121.39" cy="164.8" rx="58.63" ry="56.82"/><ellipse class="cls-4" cx="171.02" cy="116.98" rx="45" ry="36"/><ellipse class="cls-4" cx="171.02" cy="194.8" rx="72" ry="60.18"/><ellipse class="cls-4" cx="202.89" cy="151.3" rx="32.13" ry="34.32"/><ellipse class="cls-4" cx="207.02" cy="179.98" rx="63" ry="36"/><ellipse class="cls-4" cx="126.26" cy="200.55" rx="72" ry="60.18"/></g></g></svg>