<svg xmlns="http://www.w3.org/2000/svg" viewBox="0 0 217.5 216.5"><defs><style>.cls-1{fill:#2caaff;}.cls-2{fill:none;stroke:#333;stroke-width:13px;}.cls-2,.cls-5{stroke-linecap:round;stroke-miterlimit:10;}.cls-3{fill:#333;}.cls-4{fill:#fff;}.cls-5,.cls-6{fill:#fab900;}.cls-5{stroke:#fab900;stroke-width:15px;}</style></defs><g id="Calque_2" data-name="Calque 2"><g id="Calque_1-2" data-name="Calque 1"><ellipse class="cls-1" cx="108.75" cy="108.25" rx="108.75" ry="108.25"/><line class="cls-2" x1="89.5" y1="135.5" x2="26.5" y2="135.5"/><line class="cls-2" x1="101.5" y1="163.5" x2="38.5" y2="163.5"/><line class="cls-2" x1="95.5" y1="79.5" x2="32.5" y2="79.5"/><line class="cls-2" x1="86.5" y1="62.5" x2="23.5" y2="62.5"/><line class="cls-2" x1="105.5" y1="43.5" x2="42.5" y2="43.5"/><path class="cls-3" d="M100.23,36.51a5.09,5.09,0,0,0-5,5v4a5,5,0,0,0,10,0v-4A5.06,5.06,0,0,0,100.23,36.51Z"/><circle class="cls-4" cx="108" cy="108" r="61.5"/><path class="cls-3" d="M108,57a51,51,0,1,1-51,51,51.06,51.06,0,0,1,51-51m0-21a72,72,0,1,0,72,72,72,72,0,0,0-72-72Z"/><circle class="cls-4" cx="108" cy="108" r="41"/><path class="cls-3" d="M108,71a37,37,0,1,1-37,37,37,37,0,0,1,37-37m0-8a45,45,0,1,0,45,45,45,45,0,0,0-45-45Z"/><circle class="cls-4" cx="108" cy="108" r="14"/><path class="cls-3" d="M108,98a10,10,0,1,1-10,10,10,10,0,0,1,10-10m0-8a18,18,0,1,0,18,18,18,18,0,0,0-18-18Z"/><rect class="cls-3" x="112.8" y="84.2" width="30" height="8" transform="translate(-24.94 116.2) rotate(-45)"/><rect class="cls-3" x="73.2" y="123.8" width="30" height="8" transform="translate(-64.53 99.8) rotate(-45)"/><rect class="cls-3" x="84.2" y="73.2" width="8" height="30" transform="translate(-36.53 88.2) rotate(-45)"/><rect class="cls-3" x="123.8" y="112.8" width="8" height="30" transform="translate(-52.94 127.8) rotate(-45)"/><rect class="cls-3" x="104" y="65" width="8" height="30"/><rect class="cls-3" x="104" y="121" width="8" height="30"/><rect class="cls-3" x="65" y="104" width="30" height="8"/><rect class="cls-3" x="121" y="104" width="30" height="8"/><line class="cls-5" x1="115.79" y1="125.42" x2="139.38" y2="194.73"/><line class="cls-5" x1="122.21" y1="122.13" x2="171.59" y2="175.73"/><line class="cls-5" x1="126.76" y1="116.48" x2="193.38" y2="145.1"/><line class="cls-5" x1="128.65" y1="109.44" x2="201" y2="108.13"/><line class="cls-5" x1="127.55" y1="102.24" x2="193.12" y2="71.23"/><line class="cls-5" x1="123.65" y1="96.11" x2="171.1" y2="40.76"/><line class="cls-5" x1="117.62" y1="92.11" x2="138.75" y2="22"/><path class="cls-6" d="M180,108a72,72,0,0,1-72,72V36A72,72,0,0,1,180,108Z"/></g></g></svg>