<?xml version="1.0" encoding="utf-8"?>
<!-- Generator: Adobe Illustrator 25.0.0, SVG Export Plug-In . SVG Version: 6.00 Build 0)  -->
<svg version="1.1" id="Layer_1" xmlns="http://www.w3.org/2000/svg" xmlns:xlink="http://www.w3.org/1999/xlink" x="0px" y="0px"
	 viewBox="0 0 1000 1000" style="enable-background:new 0 0 1000 1000;" xml:space="preserve">
<style type="text/css">
	.st0{fill:#FFFFFF;}
	.st1{fill:url(#SVGID_1_);}
	.st2{fill:url(#SVGID_2_);}
	.st3{fill:url(#SVGID_3_);}
	.st4{fill:url(#SVGID_4_);}
	.st5{fill:url(#SVGID_5_);}
	.st6{fill:url(#SVGID_6_);}
	.st7{fill:url(#SVGID_7_);}
	.st8{fill:url(#SVGID_8_);}
	.st9{fill:url(#SVGID_9_);}
</style>
<g>
	<path class="st0" d="M405.5,377.7c6.8,34.2,18.9,67.2,39.8,93.6c4.4,5.6,9.2,10.8,14.4,15.7c8.7,8.2,18.7,15.1,28.1,22.5
		c2.4,1.9,4.8,3.8,7.1,5.8c0.4,0.4,0.8,0.7,1.3,1.1c3.5,3.1,6.9,6.4,9.9,10l2.5-5.9l0-0.1l2.8-6.6l5.3-12.5l5.5-12.9l0.8-1.8h4
		c-2.7-6.8-6.5-13.2-11.4-18.7c-12.5-14.3-30.3-22.7-47.5-31c-0.3-0.2-0.7-0.3-1-0.5c-13.2-6.4-26.5-13.2-37.8-22.6
		C418,404.4,411.1,392.8,405.5,377.7z"/>
	<path class="st0" d="M442,493.9c7.5,6,15.8,10.8,24.4,15.1c8.7,4.3,17.7,8,26.6,11.9c1.5,0.6,3,1.3,4.4,1.9
		c2.8,1.2,5.7,2.5,8.5,3.8c0.1,0,0.1,0,0.2,0.1c0,0-0.1-0.1-0.1-0.1c0,0,0,0,0,0l2.5-5.9l0-0.1l2.8-6.6l5.3-12.5l5.5-12.9
		c-1.7-1-3.4-1.9-5.2-2.8c-2.8-1.3-5.6-2.4-8.5-3.3c-15.8-5-33.2-4.9-49.6-7.9c-4.4-0.8-9-1.8-13.7-3.2c-16-4.7-32.1-13.5-37.2-33.6
		C406.3,458.5,425.7,480.9,442,493.9z"/>
	<path class="st0" d="M476.8,550.6c4.7-1.8,8.9-4.5,12.8-7.7c5-4.1,10.1-9.2,14.4-14c0.7-0.8,1.4-1.5,2.1-2.3l0,0c0,0,0,0,0.1,0
		c0,0,0,0,0,0l2.5-5.9l0-0.1l2.8-6.6l5.3-12.5c-0.8-0.1-1.7-0.1-2.5-0.1c-2.9,0.1-5.8,0.8-8.4,2c-2.9,1.4-5.6,3.5-7.6,6
		c-1.4,1.9-2.5,3.9-3.4,6.1c-0.7,1.8-1.3,3.6-1.8,5.5c-0.9,3.7-1.6,7.5-2.5,11.2C488.7,539.9,485.3,545.9,476.8,550.6z"/>
	<path class="st0" d="M518.5,446.9c-2.5,4.9-4,9.6-4.7,14c1.5,1.5,3,3,4.4,4.6c3.9,4.5,7.2,9.4,9.8,14.7c2.6-5.3,5.9-10.3,9.8-14.7
		c1.7-1.9,3.4-3.7,5.2-5.4c-5.1-24.1,16.6-24.7,16.6-24.7c-6.2-8.3-13.3-3.2-13.3-3.2c-5.7-7.1-13.7-7.1-23.7,0.4
		c-10,7.5-18.2,6.3-18.2,6.3C511.1,448,518.5,446.9,518.5,446.9z"/>
	<path class="st0" d="M525.3,528.8L525.3,528.8c0,0-20,28-13.9,48.6c6.1,20.6,12.6,34.7,9.9,44.9c0,0,7.2-11.2,5-29.9
		C524.2,573.6,522.1,539.7,525.3,528.8z"/>
	<path class="st0" d="M525.3,528.8c0,0-13.6,19-4.4,45.1c9.3,26.1,10.1,27.9,9.5,35.3c0,0,6.1-12.6,8.2-27.7
		C540.7,566.3,525.7,550.1,525.3,528.8z"/>
	<path class="st0" d="M650.9,377.7c-6.8,34.2-18.9,67.2-39.8,93.6c-4.4,5.6-9.2,10.8-14.4,15.7c-8.7,8.2-18.7,15.1-28.1,22.5
		c-2.4,1.9-4.8,3.8-7.1,5.8c-0.4,0.4-0.8,0.7-1.3,1.1c-3.5,3.1-6.9,6.4-9.9,10l-2.5-5.9l0-0.1l-2.8-6.6l-5.3-12.5l-5.5-12.9
		l-0.8-1.8h-4c2.7-6.8,6.5-13.2,11.4-18.7c12.5-14.3,30.3-22.7,47.5-31c0.3-0.2,0.7-0.3,1-0.5c13.2-6.4,26.5-13.2,37.8-22.6
		C638.4,404.4,645.3,392.8,650.9,377.7z"/>
	<path class="st0" d="M614.4,493.9c-7.5,6-15.8,10.8-24.4,15.1c-8.7,4.3-17.7,8-26.6,11.9c-1.5,0.6-3,1.3-4.4,1.9
		c-2.8,1.2-5.7,2.5-8.5,3.8c-0.1,0-0.1,0-0.2,0.1c0,0,0.1-0.1,0.1-0.1c0,0,0,0,0,0l-2.5-5.9l0-0.1l-2.8-6.6l-5.3-12.5l-5.5-12.9
		c1.7-1,3.4-1.9,5.2-2.8c2.8-1.3,5.6-2.4,8.5-3.3c15.8-5,33.2-4.9,49.6-7.9c4.4-0.8,9-1.8,13.7-3.2c16-4.7,32.1-13.5,37.2-33.6
		C650.1,458.5,630.7,480.9,614.4,493.9z"/>
	<path class="st0" d="M579.6,550.6c-4.7-1.8-8.9-4.5-12.8-7.7c-5-4.1-10.1-9.2-14.4-14c-0.7-0.8-1.4-1.5-2.1-2.3l0,0c0,0,0,0-0.1,0
		c0,0,0,0,0,0l-2.5-5.9l0-0.1l-2.8-6.6l-5.3-12.5c0.8-0.1,1.7-0.1,2.5-0.1c2.9,0.1,5.8,0.8,8.4,2c2.9,1.4,5.6,3.5,7.6,6
		c1.4,1.9,2.5,3.9,3.4,6.1c0.7,1.8,1.3,3.6,1.8,5.5c0.9,3.7,1.6,7.5,2.5,11.2C567.7,539.9,571.1,545.9,579.6,550.6z"/>
</g>
<g>
	
		<linearGradient id="SVGID_1_" gradientUnits="userSpaceOnUse" x1="619.5574" y1="491.0728" x2="716.0248" y2="409.0496" gradientTransform="matrix(-1 0 0 1 1123.5901 0)">
		<stop  offset="0" style="stop-color:#60CAE6"/>
		<stop  offset="1" style="stop-color:#D0E8F8"/>
	</linearGradient>
	<path class="st1" d="M405.4,377.7c6.8,34.2,18.9,67.2,39.8,93.6c4.4,5.6,9.2,10.8,14.4,15.7c8.7,8.2,18.7,15.1,28.1,22.5
		c2.4,1.9,4.8,3.8,7.1,5.8c0.4,0.4,0.8,0.7,1.3,1.1c3.5,3.1,6.9,6.4,9.9,10l2.5-5.9l0-0.1l2.8-6.6l5.3-12.5l5.5-12.9l0.8-1.8h4
		c-2.7-6.8-6.5-13.2-11.4-18.7c-12.5-14.3-30.3-22.7-47.5-31c-0.3-0.2-0.7-0.3-1-0.5c-13.2-6.4-26.5-13.2-37.8-22.6
		C417.9,404.4,411,392.8,405.4,377.7z"/>
	
		<linearGradient id="SVGID_2_" gradientUnits="userSpaceOnUse" x1="618.5207" y1="507.8383" x2="718.0833" y2="436.1326" gradientTransform="matrix(-1 0 0 1 1123.5901 0)">
		<stop  offset="0" style="stop-color:#804D9E"/>
		<stop  offset="1" style="stop-color:#93D5F5"/>
	</linearGradient>
	<path class="st2" d="M441.9,493.9c7.5,6,15.8,10.8,24.4,15.1c8.7,4.3,17.7,8,26.6,11.9c1.5,0.6,3,1.3,4.4,1.9
		c2.8,1.2,5.7,2.5,8.5,3.8c0.1,0,0.1,0,0.2,0.1c0,0-0.1-0.1-0.1-0.1c0,0,0,0,0,0l2.5-5.9l0-0.1l2.8-6.6l5.3-12.5l5.5-12.9
		c-1.7-1-3.4-1.9-5.2-2.8c-2.8-1.3-5.6-2.4-8.5-3.3c-15.8-5-33.2-4.9-49.6-7.9c-4.4-0.8-9-1.8-13.7-3.2c-16-4.7-32.1-13.5-37.2-33.6
		C406.2,458.5,425.6,480.9,441.9,493.9z"/>
	
		<linearGradient id="SVGID_3_" gradientUnits="userSpaceOnUse" x1="610.2678" y1="501.9906" x2="633.9977" y2="535.5221" gradientTransform="matrix(-1 0 0 1 1123.5901 0)">
		<stop  offset="0" style="stop-color:#EE1F60"/>
		<stop  offset="1" style="stop-color:#F7986B"/>
	</linearGradient>
	<path class="st3" d="M476.8,550.6c4.7-1.8,8.9-4.5,12.8-7.7c5-4.1,10.1-9.2,14.4-14c0.7-0.8,1.4-1.5,2.1-2.3l0,0c0,0,0,0,0.1,0
		c0,0,0,0,0,0l2.5-5.9l0-0.1l2.8-6.6l5.3-12.5c-0.8-0.1-1.7-0.1-2.5-0.1c-2.9,0.1-5.8,0.8-8.4,2c-2.9,1.4-5.6,3.5-7.6,6
		c-1.4,1.9-2.5,3.9-3.4,6.1c-0.7,1.8-1.3,3.6-1.8,5.5c-0.9,3.7-1.6,7.5-2.5,11.2C488.6,539.9,485.2,545.9,476.8,550.6z"/>
</g>
<path d="M216.7,498.4h-9.2V515v2.6V531h6.3h19.7v8.7h-19.3h-6.7v8.3v2v3.4v6.3V577h8.9H247v8.7h-58.1v-26v-6.3V548v-33.1v-25.2h58.4
	v8.8H216.7z"/>
<path d="M262.4,585.8v-26.1v-44.4v-25.5H281V577h49.8v8.8H262.4z"/>
<path d="M370.7,498.4h-9.2V515v2.6V531h6.3h19.7v8.7h-19.3h-6.7v8.3v2v3.4v6.3V577h8.9h30.5v8.7h-58.1v-26v-6.3V548v-33.1v-25.2
	h58.4v8.8H370.7z"/>
<path d="M487.8,521.6l-27,64.2h-7.7l-31.3-71.7l-0.9-1.9c-0.5-1.1-1.1-2.6-1.9-4.5c-0.5-1.3-1.1-2.6-1.6-3.6l-6.2-14.3h19.2
	l8.5,18.8l22.8,52.7l17.7-42.7c1.3-3,2.3-5.6,3-7.8l8.3-21.1h10.4L487.8,521.6z"/>
<path d="M725.2,573c-3.3,4-7.7,7.2-13.1,9.4c-5.5,2.3-11.8,3.4-18.8,3.4c-8.3,0-15.4-1.5-21.3-4.4c-6-2.9-10.3-6.8-12.9-11.7
	c-2.6-4.8-4.1-11.2-3.6-18.7l0.6-9.2v-27.6v-24.5h18.5v24.5v28.1c0,4.8,0,8.9,0.1,12.4c0.1,3.4,0.3,5.9,0.6,7.7c0.8,3.5,2.5,6.4,6,9
	c3.5,2.6,8.5,4,15.1,4c5,0,9.7-0.9,13.7-2.8c4.3-1.9,7.3-4.1,9-6.8c2-2.8,3.4-5.5,3.8-8.2c0.5-3.1,1.3-8,1.3-14.8v-30.4v-22.8h8.7
	v24v29.8c0,7.8-0.8,13.6-1.4,17.3C730.6,565.2,728.1,569.3,725.2,573z"/>
<path d="M777.6,585.7c-9.3-1-20.8-8-27.4-18.7l6.3-6.8c8.4,12.2,12.9,15.4,21,16.7c5.3,0.8,9.4-0.5,12.4-3c3.3-2.6,4.9-5.6,5.3-9.2
	c0.4-3.6-0.5-6.7-2.6-9.3c-2.3-2.8-6.8-6.2-14.2-10.3c-6.7-3.8-11.7-6.9-15.2-9.7c-3.6-2.9-6.3-6.5-8-10.7c-1.9-4.3-2.5-8.7-2-13.1
	c0.8-6.9,3.8-12.6,9.2-16.7c5.3-4,11.7-5.6,18.8-4.9c3.9,0.4,7.7,1.5,11,3.1c3.6,1.8,7,5,11.7,11.4l-7.3,6c-2.4-3.8-3-4.8-3.9-5.6
	c-3.1-3.8-7-5.8-11.7-6.3c-4.6-0.5-7.7,0.5-9.5,2.3c-2.3,2-3.4,4.4-3.6,6.9c-0.4,3.1,0.5,5.9,2.8,8.4c2.3,2.8,7,6.3,14.3,10.5
	c7.2,4.3,12.3,7.5,15.6,9.9c3.5,2.6,6.3,6.2,8,10.3c1.9,4.4,2.5,9,2,14.2c-0.9,8-4.4,14.4-10.4,19.1
	C793.9,585,786.4,586.7,777.6,585.7z"/>
<linearGradient id="SVGID_4_" gradientUnits="userSpaceOnUse" x1="508.8859" y1="487.1694" x2="543.707" y2="411.3367">
	<stop  offset="0" style="stop-color:#EE1F60"/>
	<stop  offset="1" style="stop-color:#FAA53D"/>
</linearGradient>
<path class="st4" d="M518.4,446.9c-2.5,4.9-4,9.6-4.7,14c1.5,1.5,3,3,4.4,4.6c3.9,4.5,7.2,9.4,9.8,14.7c2.6-5.3,5.9-10.3,9.8-14.7
	c1.7-1.9,3.4-3.7,5.2-5.4c-5.1-24.1,16.6-24.7,16.6-24.7c-6.2-8.3-13.3-3.2-13.3-3.2c-5.7-7.1-13.7-7.1-23.7,0.4s-18.2,6.3-18.2,6.3
	C511,448,518.4,446.9,518.4,446.9z"/>
<linearGradient id="SVGID_5_" gradientUnits="userSpaceOnUse" x1="518.4296" y1="532.4142" x2="518.4296" y2="608.095">
	<stop  offset="0" style="stop-color:#60CAE6"/>
	<stop  offset="1" style="stop-color:#D0E8F8"/>
</linearGradient>
<path class="st5" d="M525.2,528.8L525.2,528.8c0,0-20,28-13.9,48.6c6.1,20.6,12.6,34.7,9.9,44.9c0,0,7.2-11.2,5-29.9
	C524.1,573.6,522,539.7,525.2,528.8z"/>
<linearGradient id="SVGID_6_" gradientUnits="userSpaceOnUse" x1="528.2073" y1="528.9799" x2="528.2073" y2="598.0807">
	<stop  offset="0" style="stop-color:#EE1F60"/>
	<stop  offset="1" style="stop-color:#F7986B"/>
</linearGradient>
<path class="st6" d="M525.2,528.8c0,0-13.6,19-4.4,45.1s10.1,27.9,9.5,35.3c0,0,6.1-12.6,8.2-27.7
	C540.6,566.3,525.6,550.1,525.2,528.8z"/>
<g>
	<linearGradient id="SVGID_7_" gradientUnits="userSpaceOnUse" x1="552.1917" y1="491.0728" x2="648.6592" y2="409.0496">
		<stop  offset="0" style="stop-color:#60CAE6"/>
		<stop  offset="1" style="stop-color:#D0E8F8"/>
	</linearGradient>
	<path class="st7" d="M650.8,377.7c-6.8,34.2-18.9,67.2-39.8,93.6c-4.4,5.6-9.2,10.8-14.4,15.7c-8.7,8.2-18.7,15.1-28.1,22.5
		c-2.4,1.9-4.8,3.8-7.1,5.8c-0.4,0.4-0.8,0.7-1.3,1.1c-3.5,3.1-6.9,6.4-9.9,10l-2.5-5.9l0-0.1l-2.8-6.6l-5.3-12.5l-5.5-12.9
		l-0.8-1.8h-4c2.7-6.8,6.5-13.2,11.4-18.7c12.5-14.3,30.3-22.7,47.5-31c0.3-0.2,0.7-0.3,1-0.5c13.2-6.4,26.5-13.2,37.8-22.6
		C638.3,404.4,645.2,392.8,650.8,377.7z"/>
	<linearGradient id="SVGID_8_" gradientUnits="userSpaceOnUse" x1="551.155" y1="507.8383" x2="650.7177" y2="436.1326">
		<stop  offset="0" style="stop-color:#804D9E"/>
		<stop  offset="1" style="stop-color:#93D5F5"/>
	</linearGradient>
	<path class="st8" d="M614.3,493.9c-7.5,6-15.8,10.8-24.4,15.1c-8.7,4.3-17.7,8-26.6,11.9c-1.5,0.6-3,1.3-4.4,1.9
		c-2.8,1.2-5.7,2.5-8.5,3.8c-0.1,0-0.1,0-0.2,0.1c0,0,0.1-0.1,0.1-0.1c0,0,0,0,0,0l-2.5-5.9l0-0.1l-2.8-6.6l-5.3-12.5l-5.5-12.9
		c1.7-1,3.4-1.9,5.2-2.8c2.8-1.3,5.6-2.4,8.5-3.3c15.8-5,33.2-4.9,49.6-7.9c4.4-0.8,9-1.8,13.7-3.2c16-4.7,32.1-13.5,37.2-33.6
		C650,458.5,630.7,480.9,614.3,493.9z"/>
	<linearGradient id="SVGID_9_" gradientUnits="userSpaceOnUse" x1="542.9021" y1="501.9906" x2="566.632" y2="535.5221">
		<stop  offset="0" style="stop-color:#EE1F60"/>
		<stop  offset="1" style="stop-color:#F7986B"/>
	</linearGradient>
	<path class="st9" d="M579.5,550.6c-4.7-1.8-8.9-4.5-12.8-7.7c-5-4.1-10.1-9.2-14.4-14c-0.7-0.8-1.4-1.5-2.1-2.3l0,0c0,0,0,0-0.1,0
		c0,0,0,0,0,0l-2.5-5.9l0-0.1l-2.8-6.6l-5.3-12.5c0.8-0.1,1.7-0.1,2.5-0.1c2.9,0.1,5.8,0.8,8.4,2c2.9,1.4,5.6,3.5,7.6,6
		c1.4,1.9,2.5,3.9,3.4,6.1c0.7,1.8,1.3,3.6,1.8,5.5c0.9,3.7,1.6,7.5,2.5,11.2C567.6,539.9,571,545.9,579.5,550.6z"/>
</g>
<path d="M531.3,489.7H525l-39.7,96h10.8l12.8-33.3l3.1-8.5l11.2-27.7l11.5,27.7l3.4,8.5l6.2,14.9c0,0,2.1,4.8,7.5,18.3h20.3
	L531.3,489.7z"/>
<path d="M615.8,498.4h-12.1V559v26.7h-18.6V559v-60.6h-10.4h-27l0.3-8.7h93.4l0.1,8.7H615.8z"/>
</svg>
