<?xml version="1.0" encoding="utf-8"?>
<!-- Generator: Adobe Illustrator 25.0.0, SVG Export Plug-In . SVG Version: 6.00 Build 0)  -->
<svg version="1.1" id="Layer_1" xmlns="http://www.w3.org/2000/svg" xmlns:xlink="http://www.w3.org/1999/xlink" x="0px" y="0px"
	 viewBox="0 0 1000 1000" style="enable-background:new 0 0 1000 1000;" xml:space="preserve">
<style type="text/css">
	.st0{fill:#FFFFFF;}
	.st1{fill:url(#SVGID_1_);}
	.st2{fill:url(#SVGID_2_);}
	.st3{fill:url(#SVGID_3_);}
	.st4{fill:url(#SVGID_4_);}
	.st5{fill:url(#SVGID_5_);}
	.st6{fill:url(#SVGID_6_);}
	.st7{fill:url(#SVGID_7_);}
	.st8{fill:url(#SVGID_8_);}
	.st9{fill:url(#SVGID_9_);}
</style>
<g>
	<path class="st0" d="M390.8,372c6.8,34.2,18.9,67.2,39.8,93.6c4.4,5.6,9.2,10.8,14.4,15.7c8.7,8.2,18.7,15.1,28.1,22.5
		c2.4,1.9,4.8,3.8,7.1,5.8c0.4,0.4,0.8,0.7,1.3,1.1c3.5,3.1,6.9,6.4,9.9,10l2.5-5.9l0-0.1l2.8-6.6l5.3-12.5l5.5-12.9l0.8-1.8h4
		c-2.7-6.8-6.5-13.2-11.4-18.7c-12.5-14.3-30.3-22.7-47.5-31c-0.3-0.2-0.7-0.3-1-0.5c-13.2-6.4-26.5-13.2-37.8-22.6
		C403.4,398.7,396.5,387.1,390.8,372z"/>
	<path class="st0" d="M427.4,488.2c7.5,6,15.8,10.8,24.4,15.1c8.7,4.3,17.7,8,26.6,11.9c1.5,0.6,3,1.3,4.4,1.9
		c2.8,1.2,5.7,2.5,8.5,3.8c0.1,0,0.1,0,0.2,0.1c0,0-0.1-0.1-0.1-0.1c0,0,0,0,0,0l2.5-5.9l0-0.1l2.8-6.6l5.3-12.5l5.5-12.9
		c-1.7-1-3.4-1.9-5.2-2.8c-2.8-1.3-5.6-2.4-8.5-3.3c-15.8-5-33.2-4.9-49.6-7.9c-4.4-0.8-9-1.8-13.7-3.2c-16-4.7-32.1-13.5-37.2-33.6
		C391.7,452.8,411,475.2,427.4,488.2z"/>
	<path class="st0" d="M462.2,544.8c4.7-1.8,8.9-4.5,12.8-7.7c5-4.1,10.1-9.2,14.4-14c0.7-0.8,1.4-1.5,2.1-2.3l0,0c0,0,0,0,0.1,0
		c0,0,0,0,0,0l2.5-5.9l0-0.1l2.8-6.6l5.3-12.5c-0.8-0.1-1.7-0.1-2.5-0.1c-2.9,0.1-5.8,0.8-8.4,2c-2.9,1.4-5.6,3.5-7.6,6
		c-1.4,1.9-2.5,3.9-3.4,6.1c-0.7,1.8-1.3,3.6-1.8,5.5c-0.9,3.7-1.6,7.5-2.5,11.2C474.1,534.2,470.6,540.2,462.2,544.8z"/>
	<path class="st0" d="M503.8,441.2c-2.5,4.9-4,9.6-4.7,14c1.5,1.5,3,3,4.4,4.6c3.9,4.5,7.2,9.4,9.8,14.7c2.6-5.3,5.9-10.3,9.8-14.7
		c1.7-1.9,3.4-3.7,5.2-5.4c-5.1-24.1,16.6-24.7,16.6-24.7c-6.2-8.3-13.3-3.2-13.3-3.2c-5.7-7.1-13.7-7.1-23.7,0.4
		s-18.2,6.3-18.2,6.3C496.4,442.3,503.8,441.2,503.8,441.2z"/>
	<path class="st0" d="M510.7,523.1L510.7,523.1c0,0-20,28-13.9,48.6c6.1,20.6,12.6,34.7,9.9,44.9c0,0,7.2-11.2,5-29.9
		C509.5,567.9,507.4,534,510.7,523.1z"/>
	<path class="st0" d="M510.7,523.1c0,0-13.6,19-4.4,45.1c9.3,26.1,10.1,27.9,9.5,35.3c0,0,6.1-12.6,8.2-27.7
		C526.1,560.6,511,544.4,510.7,523.1z"/>
	<path class="st0" d="M636.3,372c-6.8,34.2-18.9,67.2-39.8,93.6c-4.4,5.6-9.2,10.8-14.4,15.7c-8.7,8.2-18.7,15.1-28.1,22.5
		c-2.4,1.9-4.8,3.8-7.1,5.8c-0.4,0.4-0.8,0.7-1.3,1.1c-3.5,3.1-6.9,6.4-9.9,10l-2.5-5.9l0-0.1l-2.8-6.6l-5.3-12.5l-5.5-12.9
		l-0.8-1.8h-4c2.7-6.8,6.5-13.2,11.4-18.7c12.5-14.3,30.3-22.7,47.5-31c0.3-0.2,0.7-0.3,1-0.5c13.2-6.4,26.5-13.2,37.8-22.6
		C623.7,398.7,630.6,387.1,636.3,372z"/>
	<path class="st0" d="M599.7,488.2c-7.5,6-15.8,10.8-24.4,15.1c-8.7,4.3-17.7,8-26.6,11.9c-1.5,0.6-3,1.3-4.4,1.9
		c-2.8,1.2-5.7,2.5-8.5,3.8c-0.1,0-0.1,0-0.2,0.1c0,0,0.1-0.1,0.1-0.1c0,0,0,0,0,0l-2.5-5.9l0-0.1l-2.8-6.6l-5.3-12.5l-5.5-12.9
		c1.7-1,3.4-1.9,5.2-2.8c2.8-1.3,5.6-2.4,8.5-3.3c15.8-5,33.2-4.9,49.6-7.9c4.4-0.8,9-1.8,13.7-3.2c16-4.7,32.1-13.5,37.2-33.6
		C635.5,452.8,616.1,475.2,599.7,488.2z"/>
	<path class="st0" d="M564.9,544.8c-4.7-1.8-8.9-4.5-12.8-7.7c-5-4.1-10.1-9.2-14.4-14c-0.7-0.8-1.4-1.5-2.1-2.3l0,0c0,0,0,0-0.1,0
		c0,0,0,0,0,0l-2.5-5.9l0-0.1l-2.8-6.6l-5.3-12.5c0.8-0.1,1.7-0.1,2.5-0.1c2.9,0.1,5.8,0.8,8.4,2c2.9,1.4,5.6,3.5,7.6,6
		c1.4,1.9,2.5,3.9,3.4,6.1c0.7,1.8,1.3,3.6,1.8,5.5c0.9,3.7,1.6,7.5,2.5,11.2C553,534.2,556.5,540.2,564.9,544.8z"/>
</g>
<g>
	<g>
		<path d="M195.2,609.8h-6.5V622v1.9v9.5h4.4h14.3v6.2h-14h-4.7v6.2v1.5v2.4v4.5v18.7h-13.5v-18.6v-4.6v-3.9v-23.9v-18.3h42v6.3
			H195.2z"/>
		<path d="M252.8,672.9c-10.6,0-17.1-3.3-23.8-9.6c-6.9-6.5-10.2-15-10.2-25.5c0-10.1,3.4-18.6,10.4-24.8c6.8-6.2,13.2-9.3,23.5-9.3
			s16.8,3.1,23.7,9.1c7.1,6.3,10.6,14.9,10.6,25.4c0,10.2-3.4,18.7-10.1,25.1C270.2,669.6,263.6,672.9,252.8,672.9z M252.7,609.9
			c-6.8,0-10,2.2-13.7,6.9c-3.6,4.5-5.6,11.6-5.6,21.3c0,9.9,2,16.9,5.6,21.5c3.7,4.7,7.1,6.9,14.4,6.9c6.4,0,10.4-2.3,14.2-6.9
			c3.5-4.4,4.6-11.3,4.6-21.4c0-9.8-1-16.6-4.6-21.2C264,612.3,259.7,609.9,252.7,609.9z"/>
		<path d="M351.5,663.6c-2.4,2.9-5.5,5.2-9.4,6.8c-4,1.6-8.5,2.4-13.6,2.4c-6,0-11.1-1.1-15.4-3.2c-4.3-2.1-7.4-4.9-9.3-8.4
			c-1.9-3.4-3-8.1-2.6-13.5l0.5-6.6v-19.9v-17.7h13.3v17.7v20.3c0,3.4,0,6.4,0.1,9c0.1,2.4,0.2,4.3,0.5,5.5c0.5,2.5,1.8,4.6,4.3,6.5
			c2.5,1.9,6.2,2.9,10.9,2.9c3.6,0,7-0.6,9.9-2c3.1-1.4,5.3-3,6.5-4.9c1.4-2,2.4-4,2.7-5.9c0.4-2.3,0.9-5.8,0.9-10.7v-21.9v-16.5
			h6.3v17.3v21.5c0,5.6-0.5,9.8-1,12.5C355.4,658,353.6,661,351.5,663.6z"/>
		<path d="M421.2,672.9l-42.7-56.2v38.2v16.3h-6.2v-16.3v-33.8v-17.6h13l34,45.4v-32v-13.4h6.8v14.1v55.2H421.2z"/>
		<path d="M492.4,663.3c-2.6,2.8-5.8,4.9-9.3,6.3c-3.4,1.4-6.7,2.4-9.9,2.7c-3,0.4-7.2,0.5-12.7,0.5h-19.7v-69.4
			c16.8,0.1,19.9,0.1,19.9,0.1c9.7,0,17.6,1.4,23.4,4.6c5.7,3.1,10,7.3,12.8,12.7c2.8,5.3,4.2,11.4,4.2,18.3c0,4.9-0.7,9.4-2.3,13.6
			C497.2,656.9,495.1,660.5,492.4,663.3z M479,616.3c-2.4-2.5-5.1-4.2-7.9-5c-2.9-0.9-6.8-1.4-11.7-1.4c-1.7,0-3.6,0-5.3,0.1v56.5h8
			c5.5,0,9.8-0.7,13.1-2.2c3-1.3,5.7-3.9,8.1-8.2c2.2-4.2,3.4-9.5,3.4-16.3c0-5.3-0.6-10-2-14C483.2,621.9,481.3,618.6,479,616.3z"
			/>
		<path d="M552.5,672.9c-3.9-9.8-5.4-13.2-5.4-13.2l-4.4-10.8h-21.1l-9.2,24h-7.8l28.6-69.3h4.5l29.5,69.3H552.5z M531.9,622.7
			l-8.1,20h16.4L531.9,622.7z"/>
		<path d="M602,609.8h-8.7v43.7v19.3h-13.4v-19.3v-43.7h-7.5h-19.5l0.2-6.3h67.4l0.1,6.3H602z"/>
		<path d="M631.3,672.9v-19v-32.1v-18.2h13.4v18.2v32.1v19H631.3z"/>
		<path d="M692.8,672.9c-10.6,0-17.1-3.3-23.8-9.6c-6.9-6.5-10.2-15-10.2-25.5c0-10.1,3.4-18.6,10.4-24.8c6.8-6.2,13.2-9.3,23.5-9.3
			c10.3,0,16.8,3.1,23.7,9.1c7.1,6.3,10.6,14.9,10.6,25.4c0,10.2-3.4,18.7-10.1,25.1C710.3,669.6,703.7,672.9,692.8,672.9z
			 M692.7,609.9c-6.8,0-10,2.2-13.7,6.9c-3.6,4.5-5.6,11.6-5.6,21.3c0,9.9,2,16.9,5.6,21.5c3.7,4.7,7.1,6.9,14.4,6.9
			c6.4,0,10.4-2.3,14.2-6.9c3.5-4.4,4.6-11.3,4.6-21.4c0-9.8-1-16.6-4.6-21.2C704,612.3,699.8,609.9,692.7,609.9z"/>
		<path d="M790.3,672.9l-42.7-56.2v38.2v16.3h-6.3v-16.3v-33.8v-17.6h13l34,45.4v-32v-13.4h6.8v14.1v55.2H790.3z"/>
	</g>
	<g>
		<g>
			
				<linearGradient id="SVGID_1_" gradientUnits="userSpaceOnUse" x1="634.2097" y1="485.363" x2="730.6771" y2="403.3399" gradientTransform="matrix(-1 0 0 1 1123.5901 0)">
				<stop  offset="0" style="stop-color:#60CAE6"/>
				<stop  offset="1" style="stop-color:#D0E8F8"/>
			</linearGradient>
			<path class="st1" d="M390.7,372c6.8,34.2,18.9,67.2,39.8,93.6c4.4,5.6,9.2,10.8,14.4,15.7c8.7,8.2,18.7,15.1,28.1,22.5
				c2.4,1.9,4.8,3.8,7.1,5.8c0.4,0.4,0.8,0.7,1.3,1.1c3.5,3.1,6.9,6.4,9.9,10l2.5-5.9l0-0.1l2.8-6.6l5.3-12.5l5.5-12.9l0.8-1.8h4
				c-2.7-6.8-6.5-13.2-11.4-18.7c-12.5-14.3-30.3-22.7-47.5-31c-0.3-0.2-0.7-0.3-1-0.5c-13.2-6.4-26.5-13.2-37.8-22.6
				C403.3,398.7,396.4,387.1,390.7,372z"/>
			
				<linearGradient id="SVGID_2_" gradientUnits="userSpaceOnUse" x1="633.173" y1="502.1286" x2="732.7356" y2="430.4228" gradientTransform="matrix(-1 0 0 1 1123.5901 0)">
				<stop  offset="0" style="stop-color:#804D9E"/>
				<stop  offset="1" style="stop-color:#93D5F5"/>
			</linearGradient>
			<path class="st2" d="M427.3,488.2c7.5,6,15.8,10.8,24.4,15.1c8.7,4.3,17.7,8,26.6,11.9c1.5,0.6,3,1.3,4.4,1.9
				c2.8,1.2,5.7,2.5,8.5,3.8c0.1,0,0.1,0,0.2,0.1c0,0-0.1-0.1-0.1-0.1c0,0,0,0,0,0l2.5-5.9l0-0.1l2.8-6.6l5.3-12.5l5.5-12.9
				c-1.7-1-3.4-1.9-5.2-2.8c-2.8-1.3-5.6-2.4-8.5-3.3c-15.8-5-33.2-4.9-49.6-7.9c-4.4-0.8-9-1.8-13.7-3.2
				c-16-4.7-32.1-13.5-37.2-33.6C391.6,452.8,410.9,475.2,427.3,488.2z"/>
			
				<linearGradient id="SVGID_3_" gradientUnits="userSpaceOnUse" x1="624.92" y1="496.2809" x2="648.65" y2="529.8123" gradientTransform="matrix(-1 0 0 1 1123.5901 0)">
				<stop  offset="0" style="stop-color:#EE1F60"/>
				<stop  offset="1" style="stop-color:#F7986B"/>
			</linearGradient>
			<path class="st3" d="M462.1,544.8c4.7-1.8,8.9-4.5,12.8-7.7c5-4.1,10.1-9.2,14.4-14c0.7-0.8,1.4-1.5,2.1-2.3l0,0c0,0,0,0,0.1,0
				c0,0,0,0,0,0l2.5-5.9l0-0.1l2.8-6.6l5.3-12.5c-0.8-0.1-1.7-0.1-2.5-0.1c-2.9,0.1-5.8,0.8-8.4,2c-2.9,1.4-5.6,3.5-7.6,6
				c-1.4,1.9-2.5,3.9-3.4,6.1c-0.7,1.8-1.3,3.6-1.8,5.5c-0.9,3.7-1.6,7.5-2.5,11.2C474,534.2,470.5,540.2,462.1,544.8z"/>
		</g>
		<path d="M202.1,492.7h-9.2v16.6v2.6v13.4h6.3h19.7v8.7h-19.3h-6.7v8.3v2v3.4v6.3v17.3h8.9h30.5v8.7h-58.1v-26v-6.3v-5.4v-33.1
			v-25.2h58.4v8.8H202.1z"/>
		<path d="M247.8,580.1V554v-44.4V484h18.6v87.3h49.8v8.8H247.8z"/>
		<path d="M356,492.7h-9.2v16.6v2.6v13.4h6.3h19.7v8.7h-19.3h-6.7v8.3v2v3.4v6.3v17.3h8.9h30.5v8.7h-58.1v-26v-6.3v-5.4v-33.1v-25.2
			h58.4v8.8H356z"/>
		<path d="M473.1,515.9l-27,64.2h-7.7l-31.3-71.7l-0.9-1.9c-0.5-1.1-1.1-2.6-1.9-4.5c-0.5-1.3-1.1-2.6-1.6-3.6l-6.2-14.3h19.2
			l8.5,18.8l22.8,52.7l17.7-42.7c1.3-3,2.3-5.6,3-7.8l8.3-21.1h10.4L473.1,515.9z"/>
		<path d="M710.6,567.3c-3.3,4-7.7,7.2-13.1,9.4c-5.5,2.3-11.8,3.4-18.8,3.4c-8.3,0-15.4-1.5-21.3-4.4c-6-2.9-10.3-6.8-12.9-11.7
			c-2.6-4.8-4.1-11.2-3.6-18.7l0.6-9.2v-27.6V484h18.5v24.5v28.1c0,4.8,0,8.9,0.1,12.4c0.1,3.4,0.3,5.9,0.6,7.7c0.8,3.5,2.5,6.4,6,9
			c3.5,2.6,8.5,4,15.1,4c5,0,9.7-0.9,13.7-2.8c4.3-1.9,7.3-4.1,9-6.8c2-2.8,3.4-5.5,3.8-8.2c0.5-3.1,1.3-8,1.3-14.8v-30.4V484h8.7
			v24v29.8c0,7.8-0.8,13.6-1.4,17.3C716,559.5,713.5,563.6,710.6,567.3z"/>
		<path d="M762.9,580c-9.3-1-20.8-8-27.4-18.7l6.3-6.8c8.4,12.2,12.9,15.4,21,16.7c5.3,0.8,9.4-0.5,12.4-3c3.3-2.6,4.9-5.6,5.3-9.2
			c0.4-3.6-0.5-6.7-2.6-9.3c-2.3-2.8-6.8-6.2-14.2-10.3c-6.7-3.8-11.7-6.9-15.2-9.7c-3.6-2.9-6.3-6.5-8-10.7
			c-1.9-4.3-2.5-8.7-2-13.1c0.8-6.9,3.8-12.6,9.2-16.7c5.3-4,11.7-5.6,18.8-4.9c3.9,0.4,7.7,1.5,11,3.1c3.6,1.8,7,5,11.7,11.4
			l-7.3,6c-2.4-3.8-3-4.8-3.9-5.6c-3.1-3.8-7-5.8-11.7-6.3c-4.6-0.5-7.7,0.5-9.5,2.3c-2.3,2-3.4,4.4-3.6,6.9
			c-0.4,3.1,0.5,5.9,2.8,8.4c2.3,2.8,7,6.3,14.3,10.5c7.2,4.3,12.3,7.5,15.6,9.9c3.5,2.6,6.3,6.2,8,10.3c1.9,4.4,2.5,9,2,14.2
			c-0.9,8-4.4,14.4-10.4,19.1C779.2,579.3,771.7,581,762.9,580z"/>
		<linearGradient id="SVGID_4_" gradientUnits="userSpaceOnUse" x1="494.2336" y1="481.4596" x2="529.0547" y2="405.6269">
			<stop  offset="0" style="stop-color:#EE1F60"/>
			<stop  offset="1" style="stop-color:#FAA53D"/>
		</linearGradient>
		<path class="st4" d="M503.7,441.2c-2.5,4.9-4,9.6-4.7,14c1.5,1.5,3,3,4.4,4.6c3.9,4.5,7.2,9.4,9.8,14.7c2.6-5.3,5.9-10.3,9.8-14.7
			c1.7-1.9,3.4-3.7,5.2-5.4c-5.1-24.1,16.6-24.7,16.6-24.7c-6.2-8.3-13.3-3.2-13.3-3.2c-5.7-7.1-13.7-7.1-23.7,0.4
			c-10,7.5-18.2,6.3-18.2,6.3C496.3,442.3,503.7,441.2,503.7,441.2z"/>
		<linearGradient id="SVGID_5_" gradientUnits="userSpaceOnUse" x1="503.7774" y1="526.7044" x2="503.7774" y2="602.3853">
			<stop  offset="0" style="stop-color:#60CAE6"/>
			<stop  offset="1" style="stop-color:#D0E8F8"/>
		</linearGradient>
		<path class="st5" d="M510.6,523.1L510.6,523.1c0,0-20,28-13.9,48.6c6.1,20.6,12.6,34.7,9.9,44.9c0,0,7.2-11.2,5-29.9
			S507.3,534,510.6,523.1z"/>
		<linearGradient id="SVGID_6_" gradientUnits="userSpaceOnUse" x1="513.5551" y1="523.2701" x2="513.5551" y2="592.371">
			<stop  offset="0" style="stop-color:#EE1F60"/>
			<stop  offset="1" style="stop-color:#F7986B"/>
		</linearGradient>
		<path class="st6" d="M510.6,523.1c0,0-13.6,19-4.4,45.1c9.3,26.1,10.1,27.9,9.5,35.3c0,0,6.1-12.6,8.2-27.7
			C526,560.6,510.9,544.4,510.6,523.1z"/>
		<g>
			<linearGradient id="SVGID_7_" gradientUnits="userSpaceOnUse" x1="537.5394" y1="485.363" x2="634.0069" y2="403.3399">
				<stop  offset="0" style="stop-color:#60CAE6"/>
				<stop  offset="1" style="stop-color:#D0E8F8"/>
			</linearGradient>
			<path class="st7" d="M636.2,372c-6.8,34.2-18.9,67.2-39.8,93.6c-4.4,5.6-9.2,10.8-14.4,15.7c-8.7,8.2-18.7,15.1-28.1,22.5
				c-2.4,1.9-4.8,3.8-7.1,5.8c-0.4,0.4-0.8,0.7-1.3,1.1c-3.5,3.1-6.9,6.4-9.9,10l-2.5-5.9l0-0.1l-2.8-6.6l-5.3-12.5l-5.5-12.9
				l-0.8-1.8h-4c2.7-6.8,6.5-13.2,11.4-18.7c12.5-14.3,30.3-22.7,47.5-31c0.3-0.2,0.7-0.3,1-0.5c13.2-6.4,26.5-13.2,37.8-22.6
				C623.6,398.7,630.5,387.1,636.2,372z"/>
			<linearGradient id="SVGID_8_" gradientUnits="userSpaceOnUse" x1="536.5027" y1="502.1286" x2="636.0654" y2="430.4228">
				<stop  offset="0" style="stop-color:#804D9E"/>
				<stop  offset="1" style="stop-color:#93D5F5"/>
			</linearGradient>
			<path class="st8" d="M599.6,488.2c-7.5,6-15.8,10.8-24.4,15.1c-8.7,4.3-17.7,8-26.6,11.9c-1.5,0.6-3,1.3-4.4,1.9
				c-2.8,1.2-5.7,2.5-8.5,3.8c-0.1,0-0.1,0-0.2,0.1c0,0,0.1-0.1,0.1-0.1c0,0,0,0,0,0l-2.5-5.9l0-0.1l-2.8-6.6l-5.3-12.5l-5.5-12.9
				c1.7-1,3.4-1.9,5.2-2.8c2.8-1.3,5.6-2.4,8.5-3.3c15.8-5,33.2-4.9,49.6-7.9c4.4-0.8,9-1.8,13.7-3.2c16-4.7,32.1-13.5,37.2-33.6
				C635.4,452.8,616,475.2,599.6,488.2z"/>
			<linearGradient id="SVGID_9_" gradientUnits="userSpaceOnUse" x1="528.2498" y1="496.2809" x2="551.9797" y2="529.8123">
				<stop  offset="0" style="stop-color:#EE1F60"/>
				<stop  offset="1" style="stop-color:#F7986B"/>
			</linearGradient>
			<path class="st9" d="M564.8,544.8c-4.7-1.8-8.9-4.5-12.8-7.7c-5-4.1-10.1-9.2-14.4-14c-0.7-0.8-1.4-1.5-2.1-2.3l0,0
				c0,0,0,0-0.1,0c0,0,0,0,0,0l-2.5-5.9l0-0.1l-2.8-6.6l-5.3-12.5c0.8-0.1,1.7-0.1,2.5-0.1c2.9,0.1,5.8,0.8,8.4,2
				c2.9,1.4,5.6,3.5,7.6,6c1.4,1.9,2.5,3.9,3.4,6.1c0.7,1.8,1.3,3.6,1.8,5.5c0.9,3.7,1.6,7.5,2.5,11.2
				C553,534.2,556.4,540.2,564.8,544.8z"/>
		</g>
		<path d="M516.6,484h-6.3l-39.7,96h10.8l12.8-33.3l3.1-8.5l11.2-27.7l11.5,27.7l3.4,8.5l6.2,14.9c0,0,2.1,4.8,7.5,18.3h20.3
			L516.6,484z"/>
		<path d="M601.1,492.7H589v60.6v26.7h-18.6v-26.7v-60.6H560h-27l0.3-8.7h93.4l0.1,8.7H601.1z"/>
	</g>
</g>
</svg>
