<?xml version="1.0" encoding="UTF-8" standalone="no"?>
<svg
   xmlns:dc="http://purl.org/dc/elements/1.1/"
   xmlns:cc="http://creativecommons.org/ns#"
   xmlns:rdf="http://www.w3.org/1999/02/22-rdf-syntax-ns#"
   xmlns:svg="http://www.w3.org/2000/svg"
   xmlns="http://www.w3.org/2000/svg"
   xmlns:sodipodi="http://sodipodi.sourceforge.net/DTD/sodipodi-0.dtd"
   xmlns:inkscape="http://www.inkscape.org/namespaces/inkscape"
   version="1.1"
   id="svg2"
   xml:space="preserve"
   width="1333.3333"
   height="1333.3333"
   viewBox="0 0 1333.3333 1333.3333"
   sodipodi:docname="PHOENIX only.ai"><metadata
     id="metadata8"><rdf:RDF><cc:Work
         rdf:about=""><dc:format>image/svg+xml</dc:format><dc:type
           rdf:resource="http://purl.org/dc/dcmitype/StillImage" /></cc:Work></rdf:RDF></metadata><defs
     id="defs6"><linearGradient
       x1="0"
       y1="0"
       x2="1"
       y2="0"
       gradientUnits="userSpaceOnUse"
       gradientTransform="matrix(185.7901,249.10403,249.10403,-185.7901,632.10388,573.17657)"
       spreadMethod="pad"
       id="linearGradient28"><stop
         style="stop-opacity:1;stop-color:#60cae6"
         offset="0"
         id="stop24" /><stop
         style="stop-opacity:1;stop-color:#d0e8f8"
         offset="1"
         id="stop26" /></linearGradient><clipPath
       clipPathUnits="userSpaceOnUse"
       id="clipPath38"><path
         d="M 0,1000 H 1000 V 0 H 0 Z"
         id="path36" /></clipPath><clipPath
       clipPathUnits="userSpaceOnUse"
       id="clipPath46"><path
         d="M 505.01,728.331 H 904.393 V 404.326 H 505.01 Z"
         id="path44" /></clipPath><linearGradient
       x1="0"
       y1="0"
       x2="1"
       y2="0"
       gradientUnits="userSpaceOnUse"
       gradientTransform="matrix(430.38043,346.22781,346.22781,-430.38043,472.97672,401.96664)"
       spreadMethod="pad"
       id="linearGradient56"><stop
         style="stop-opacity:1;stop-color:#804d9e"
         offset="0"
         id="stop52" /><stop
         style="stop-opacity:1;stop-color:#92d5f5"
         offset="1"
         id="stop54" /></linearGradient><clipPath
       clipPathUnits="userSpaceOnUse"
       id="clipPath78"><path
         d="m 510.758,524.122 h 172.42 V 365.884 h -172.42 z"
         id="path76" /></clipPath><linearGradient
       x1="0"
       y1="0"
       x2="1"
       y2="0"
       gradientUnits="userSpaceOnUse"
       gradientTransform="matrix(145.6992,-123.28394,-123.28394,-145.6992,529.1319,528.66449)"
       spreadMethod="pad"
       id="linearGradient88"><stop
         style="stop-opacity:1;stop-color:#ee1f60"
         offset="0"
         id="stop84" /><stop
         style="stop-opacity:1;stop-color:#faa43d"
         offset="1"
         id="stop86" /></linearGradient><linearGradient
       x1="0"
       y1="0"
       x2="1"
       y2="0"
       gradientUnits="userSpaceOnUse"
       gradientTransform="matrix(0,-242.93828,-242.93828,0,475.62686,367.79584)"
       spreadMethod="pad"
       id="linearGradient120"><stop
         style="stop-opacity:1;stop-color:#60cae6"
         offset="0"
         id="stop116" /><stop
         style="stop-opacity:1;stop-color:#d0e8f8"
         offset="1"
         id="stop118" /></linearGradient><clipPath
       clipPathUnits="userSpaceOnUse"
       id="clipPath130"><path
         d="M 0,1000 H 1000 V 0 H 0 Z"
         id="path128" /></clipPath><clipPath
       clipPathUnits="userSpaceOnUse"
       id="clipPath138"><path
         d="m 473.176,379.296 h 67.675 V 121.272 h -67.675 z"
         id="path136" /></clipPath><linearGradient
       x1="0"
       y1="0"
       x2="1"
       y2="0"
       gradientUnits="userSpaceOnUse"
       gradientTransform="matrix(0,-306.3642,-306.3642,0,507.01352,387.45761)"
       spreadMethod="pad"
       id="linearGradient148"><stop
         style="stop-opacity:1;stop-color:#ee1f60"
         offset="0"
         id="stop144" /><stop
         style="stop-opacity:1;stop-color:#faa43d"
         offset="1"
         id="stop146" /></linearGradient><linearGradient
       x1="0"
       y1="0"
       x2="1"
       y2="0"
       gradientUnits="userSpaceOnUse"
       gradientTransform="matrix(-185.7901,249.10403,-249.10403,-185.7901,367.89609,573.17657)"
       spreadMethod="pad"
       id="linearGradient180"><stop
         style="stop-opacity:1;stop-color:#60cae6"
         offset="0"
         id="stop176" /><stop
         style="stop-opacity:1;stop-color:#d0e8f8"
         offset="1"
         id="stop178" /></linearGradient><clipPath
       clipPathUnits="userSpaceOnUse"
       id="clipPath190"><path
         d="M 0,1000 H 1000 V 0 H 0 Z"
         id="path188" /></clipPath><clipPath
       clipPathUnits="userSpaceOnUse"
       id="clipPath198"><path
         d="M 95.6068,728.331 H 494.99 V 404.326 H 95.6068 Z"
         id="path196" /></clipPath><linearGradient
       x1="0"
       y1="0"
       x2="1"
       y2="0"
       gradientUnits="userSpaceOnUse"
       gradientTransform="matrix(-430.38043,346.22781,-346.22781,-430.38043,527.02332,401.96664)"
       spreadMethod="pad"
       id="linearGradient208"><stop
         style="stop-opacity:1;stop-color:#804d9e"
         offset="0"
         id="stop204" /><stop
         style="stop-opacity:1;stop-color:#92d5f5"
         offset="1"
         id="stop206" /></linearGradient><clipPath
       clipPathUnits="userSpaceOnUse"
       id="clipPath230"><path
         d="m 316.822,524.122 h 172.42 V 365.884 h -172.42 z"
         id="path228" /></clipPath><linearGradient
       x1="0"
       y1="0"
       x2="1"
       y2="0"
       gradientUnits="userSpaceOnUse"
       gradientTransform="matrix(-145.6992,-123.28394,123.28394,-145.6992,470.8681,528.66449)"
       spreadMethod="pad"
       id="linearGradient240"><stop
         style="stop-opacity:1;stop-color:#ee1f60"
         offset="0"
         id="stop236" /><stop
         style="stop-opacity:1;stop-color:#faa43d"
         offset="1"
         id="stop238" /></linearGradient><clipPath
       clipPathUnits="userSpaceOnUse"
       id="clipPath262"><path
         d="M 424.285,739.282 H 601.589 V 568.931 H 424.285 Z"
         id="path260" /></clipPath><linearGradient
       x1="0"
       y1="0"
       x2="1"
       y2="0"
       gradientUnits="userSpaceOnUse"
       gradientTransform="matrix(111.29458,242.37485,242.37485,-111.29458,439.69067,546.77814)"
       spreadMethod="pad"
       id="linearGradient272"><stop
         style="stop-opacity:1;stop-color:#ee1f60"
         offset="0"
         id="stop268" /><stop
         style="stop-opacity:1;stop-color:#faa43d"
         offset="1"
         id="stop270" /></linearGradient></defs><sodipodi:namedview
     pagecolor="#ffffff"
     bordercolor="#666666"
     borderopacity="1"
     objecttolerance="10"
     gridtolerance="10"
     guidetolerance="10"
     inkscape:pageopacity="0"
     inkscape:pageshadow="2"
     inkscape:window-width="640"
     inkscape:window-height="480"
     id="namedview4" /><g
     id="g10"
     inkscape:groupmode="layer"
     inkscape:label="PHOENIX only"
     transform="matrix(1.3333333,0,0,-1.3333333,0,1333.3333)"><g
       id="g12"><g
         id="g14"><g
           id="g20"><g
             id="g22"><path
               d="M 835.736,804.637 C 799.471,774.383 756.946,752.773 714.47,732.206 v 0 c -1.092,-0.547 -2.235,-1.093 -3.328,-1.59 v 0 C 656.049,703.988 598.918,677.112 558.628,631.11 v 0 c -20.964,-23.946 -35.769,-52.461 -44.412,-82.815 v 0 c -13.264,-46.598 -12.172,-97.718 3.129,-143.969 v 0 c 6.309,-19.126 15.053,-37.358 26.231,-54.15 v 0 c 4.869,34.726 22.504,65.825 45.456,92.701 v 0 c 0.148,0.099 0.199,0.199 0.298,0.298 v 0 c 9.836,11.526 20.667,22.256 31.894,32.192 v 0 c 1.341,1.192 2.732,2.384 4.073,3.528 v 0 c 7.402,6.457 15.053,12.617 22.753,18.678 v 0 c 30.354,23.846 62.247,45.754 90.316,72.233 v 0 c 16.692,15.748 32.043,32.639 46.052,50.474 v 0 c 67.116,84.702 105.915,190.766 127.873,300.556 v 0 c -18.133,-48.635 -40.24,-85.944 -76.555,-116.199"
               style="fill:url(#linearGradient28);stroke:none"
               id="path30" /></g></g></g></g><g
       id="g32"><g
         id="g34"
         clip-path="url(#clipPath38)"><g
           id="g40"><g
             id="g42" /><g
             id="g70"><g
               clip-path="url(#clipPath46)"
               id="g68"><g
                 id="g66"><g
                   id="g64"><g
                     id="g62"><g
                       id="g60"><path
                         d="m 794.9,547.699 c -24.193,-19.176 -50.771,-34.626 -78.393,-48.337 -27.919,-13.811 -56.832,-25.833 -85.546,-38.054 -4.72,-2.037 -9.439,-4.024 -14.159,-6.061 -9.141,-3.925 -18.282,-7.998 -27.373,-12.221 -0.149,0 -0.248,-0.099 -0.397,-0.149 -24.691,-11.376 -48.983,-23.895 -71.687,-38.551 -15.3,46.251 -16.394,97.371 -3.129,143.969 12.022,10.284 25.386,18.978 39.792,25.784 8.893,4.172 17.984,7.65 27.224,10.531 50.722,16.047 106.462,15.649 159.369,25.486 14.06,2.583 28.913,5.812 43.817,10.184 51.517,14.953 103.133,43.419 119.626,108.051 C 909.608,661.463 847.51,589.379 794.9,547.699"
                         style="fill:url(#linearGradient56);stroke:none"
                         id="path58" /></g></g></g></g></g></g></g><g
           id="g72"><g
             id="g74" /><g
             id="g102"><g
               clip-path="url(#clipPath78)"
               id="g100"><g
                 id="g98"><g
                   id="g96"><g
                     id="g94"><g
                       id="g92"><path
                         d="m 510.758,500.604 c 35.714,-9.463 60.731,-37.495 85.383,-65.015 13.854,-15.466 30.246,-31.565 46.101,-44.895 12.357,-10.39 25.77,-19.163 40.936,-24.81 -27.073,14.948 -38.102,34.234 -44.181,59.415 -6.08,25.181 -8.696,52.529 -24.583,72.989 -6.401,8.244 -14.818,14.853 -24.246,19.323 -8.44,4.001 -17.69,6.287 -27.031,6.495 -19.776,0.442 -39.562,-8.436 -52.379,-23.502"
                         style="fill:url(#linearGradient88);stroke:none"
                         id="path90" /></g></g></g></g></g></g></g></g></g><g
       id="g104"><g
         id="g106"><g
           id="g112"><g
             id="g114"><path
               d="m 452.878,223.284 c 19.696,-66.266 40.471,-111.24 31.923,-144.12 v 0 c 0,0 23.04,35.915 15.98,96.11 v 0 c -7.061,60.195 -13.696,169.119 -3.291,204.022 v 0 c 0,0 -64.307,-89.747 -44.612,-156.012"
               style="fill:url(#linearGradient120);stroke:none"
               id="path122" /></g></g></g></g><g
       id="g124"><g
         id="g126"
         clip-path="url(#clipPath130)"><g
           id="g132"><g
             id="g134" /><g
             id="g162"><g
               clip-path="url(#clipPath138)"
               id="g160"><g
                 id="g158"><g
                   id="g156"><g
                     id="g154"><g
                       id="g152"><path
                         d="m 497.49,379.296 c 0,0 -43.666,-61.053 -13.964,-144.7 29.702,-83.648 32.4,-89.718 30.377,-113.324 0,0 19.559,40.468 26.303,89.028 6.745,48.561 -41.592,100.584 -42.716,168.996"
                         style="fill:url(#linearGradient148);stroke:none"
                         id="path150" /></g></g></g></g></g></g></g></g></g><g
       id="g164"><g
         id="g166"><g
           id="g172"><g
             id="g174"><path
               d="m 215.581,620.28 c 14.011,-17.835 29.361,-34.726 46.053,-50.474 v 0 c 28.069,-26.479 59.962,-48.387 90.316,-72.233 v 0 c 7.7,-6.061 15.351,-12.221 22.752,-18.678 v 0 c 1.342,-1.144 2.733,-2.336 4.075,-3.528 v 0 c 11.226,-9.936 22.057,-20.666 31.893,-32.192 v 0 c 0.099,-0.099 0.149,-0.199 0.298,-0.298 v 0 c 22.952,-26.876 40.588,-57.975 45.456,-92.701 v 0 c 11.178,16.792 19.922,35.024 26.231,54.15 v 0 c 15.301,46.251 16.393,97.371 3.129,143.969 v 0 c -8.644,30.354 -23.448,58.869 -44.412,82.815 v 0 c -40.29,46.002 -97.421,72.878 -152.514,99.506 v 0 c -1.093,0.497 -2.236,1.043 -3.329,1.59 v 0 c -42.475,20.567 -85,42.177 -121.266,72.431 v 0 c -36.314,30.255 -58.421,67.564 -76.554,116.199 v 0 C 109.667,811.046 148.466,704.982 215.581,620.28"
               style="fill:url(#linearGradient180);stroke:none"
               id="path182" /></g></g></g></g><g
       id="g184"><g
         id="g186"
         clip-path="url(#clipPath190)"><g
           id="g192"><g
             id="g194" /><g
             id="g222"><g
               clip-path="url(#clipPath198)"
               id="g220"><g
                 id="g218"><g
                   id="g216"><g
                     id="g214"><g
                       id="g212"><path
                         d="m 205.1,547.699 c 24.193,-19.176 50.771,-34.626 78.393,-48.337 27.919,-13.811 56.832,-25.833 85.546,-38.054 4.72,-2.037 9.439,-4.024 14.159,-6.061 9.141,-3.925 18.282,-7.998 27.373,-12.221 0.149,0 0.248,-0.099 0.397,-0.149 24.691,-11.376 48.983,-23.895 71.687,-38.551 15.3,46.251 16.394,97.371 3.129,143.969 -12.022,10.284 -25.386,18.978 -39.792,25.784 -8.893,4.172 -17.984,7.65 -27.224,10.531 -50.722,16.047 -106.462,15.649 -159.369,25.486 -14.06,2.583 -28.913,5.812 -43.817,10.184 C 164.065,635.233 112.449,663.699 95.956,728.331 90.392,661.463 152.49,589.379 205.1,547.699"
                         style="fill:url(#linearGradient208);stroke:none"
                         id="path210" /></g></g></g></g></g></g></g><g
           id="g224"><g
             id="g226" /><g
             id="g254"><g
               clip-path="url(#clipPath230)"
               id="g252"><g
                 id="g250"><g
                   id="g248"><g
                     id="g246"><g
                       id="g244"><path
                         d="m 489.242,500.604 c -35.714,-9.463 -60.731,-37.495 -85.383,-65.015 -13.854,-15.466 -30.246,-31.565 -46.101,-44.895 -12.358,-10.39 -25.77,-19.163 -40.936,-24.81 27.073,14.948 38.102,34.234 44.181,59.415 6.08,25.181 8.696,52.529 24.583,72.989 6.401,8.244 14.818,14.853 24.246,19.323 8.44,4.001 17.69,6.287 27.031,6.495 19.776,0.442 39.562,-8.436 52.379,-23.502"
                         style="fill:url(#linearGradient240);stroke:none"
                         id="path242" /></g></g></g></g></g></g></g><g
           id="g256"><g
             id="g258" /><g
             id="g286"><g
               clip-path="url(#clipPath262)"
               id="g284"><g
                 id="g282"><g
                   id="g280"><g
                     id="g278"><g
                       id="g276"><path
                         d="m 546.147,646.976 c -0.844,-0.894 -1.639,-1.838 -2.484,-2.782 -18.778,-21.411 -33.682,-47.194 -43.667,-75.263 -9.787,27.522 -24.343,52.808 -42.575,73.972 2.633,10.333 6.657,21.063 12.271,32.142 0,0 -23.697,-3.329 -45.407,25.584 0,0 26.231,-3.825 58.423,20.368 32.192,24.194 57.975,24.144 76.157,1.242 0,0 22.803,16.444 42.724,-10.283 0,0 -60.757,-1.639 -55.442,-64.98"
                         style="fill:url(#linearGradient272);stroke:none"
                         id="path274" /></g></g></g></g></g></g></g></g></g></g></svg>
