<?xml version="1.0" encoding="utf-8"?>
<!-- Generator: Adobe Illustrator 25.0.0, SVG Export Plug-In . SVG Version: 6.00 Build 0)  -->
<svg version="1.1" id="Layer_1" xmlns="http://www.w3.org/2000/svg" xmlns:xlink="http://www.w3.org/1999/xlink" x="0px" y="0px"
	 viewBox="0 0 1000 1000" style="enable-background:new 0 0 1000 1000;" xml:space="preserve">
<style type="text/css">
	.st0{fill:#FFFFFF;}
	.st1{fill:url(#SVGID_1_);}
	.st2{fill:url(#SVGID_2_);}
	.st3{fill:url(#SVGID_3_);}
	.st4{fill:url(#SVGID_4_);}
	.st5{fill:url(#SVGID_5_);}
	.st6{fill:url(#SVGID_6_);}
	.st7{fill:url(#SVGID_7_);}
	.st8{fill:url(#SVGID_8_);}
	.st9{fill:url(#SVGID_9_);}
</style>
<g>
	<path class="st0" d="M403.4,359.1c6.8,34.2,18.9,67.2,39.8,93.6c4.4,5.6,9.2,10.8,14.4,15.7c8.7,8.2,18.7,15.1,28.1,22.5
		c2.4,1.9,4.8,3.8,7.1,5.8c0.4,0.4,0.8,0.7,1.3,1.1c3.5,3.1,6.9,6.4,9.9,10l2.5-5.9l0-0.1l2.8-6.6l5.3-12.5l5.5-12.9l0.8-1.8h4
		c-2.7-6.8-6.5-13.2-11.4-18.7c-12.5-14.3-30.3-22.7-47.5-31c-0.3-0.2-0.7-0.3-1-0.5c-13.2-6.4-26.5-13.2-37.8-22.6
		C415.9,385.8,409,374.2,403.4,359.1z"/>
	<path class="st0" d="M439.9,475.3c7.5,6,15.8,10.8,24.4,15.1c8.7,4.3,17.7,8,26.6,11.9c1.5,0.6,3,1.3,4.4,1.9
		c2.8,1.2,5.7,2.5,8.5,3.8c0.1,0,0.1,0,0.2,0.1c0,0-0.1-0.1-0.1-0.1c0,0,0,0,0,0l2.5-5.9l0-0.1l2.8-6.6l5.3-12.5l5.5-12.9
		c-1.7-1-3.4-1.9-5.2-2.8c-2.8-1.3-5.6-2.4-8.5-3.3c-15.8-5-33.2-4.9-49.6-7.9c-4.4-0.8-9-1.8-13.7-3.2c-16-4.7-32.1-13.5-37.2-33.6
		C404.2,439.9,423.5,462.3,439.9,475.3z"/>
	<path class="st0" d="M474.7,532c4.7-1.8,8.9-4.5,12.8-7.7c5-4.1,10.1-9.2,14.4-14c0.7-0.8,1.4-1.5,2.1-2.3l0,0c0,0,0,0,0.1,0
		c0,0,0,0,0,0l2.5-5.9l0-0.1l2.8-6.6l5.3-12.5c-0.8-0.1-1.7-0.1-2.5-0.1c-2.9,0.1-5.8,0.8-8.4,2c-2.9,1.4-5.6,3.5-7.6,6
		c-1.4,1.9-2.5,3.9-3.4,6.1c-0.7,1.8-1.3,3.6-1.8,5.5c-0.9,3.7-1.6,7.5-2.5,11.2C486.6,521.3,483.2,527.3,474.7,532z"/>
	<path class="st0" d="M516.3,428.3c-2.5,4.9-4,9.6-4.7,14c1.5,1.5,3,3,4.4,4.6c3.9,4.5,7.2,9.4,9.8,14.7c2.6-5.3,5.9-10.3,9.8-14.7
		c1.7-1.9,3.4-3.7,5.2-5.4c-5.1-24.1,16.6-24.7,16.6-24.7c-6.2-8.3-13.3-3.2-13.3-3.2c-5.7-7.1-13.7-7.1-23.7,0.4
		c-10,7.5-18.2,6.3-18.2,6.3C508.9,429.4,516.3,428.3,516.3,428.3z"/>
	<path class="st0" d="M523.2,510.2L523.2,510.2c0,0-20,28-13.9,48.6s12.6,34.7,9.9,44.9c0,0,7.2-11.2,5-29.9
		C522,555,520,521.1,523.2,510.2z"/>
	<path class="st0" d="M523.2,510.2c0,0-13.6,19-4.4,45.1c9.3,26.1,10.1,27.9,9.5,35.3c0,0,6.1-12.6,8.2-27.7
		C538.6,547.7,523.6,531.5,523.2,510.2z"/>
	<path class="st0" d="M648.8,359.1c-6.8,34.2-18.9,67.2-39.8,93.6c-4.4,5.6-9.2,10.8-14.4,15.7c-8.7,8.2-18.7,15.1-28.1,22.5
		c-2.4,1.9-4.8,3.8-7.1,5.8c-0.4,0.4-0.8,0.7-1.3,1.1c-3.5,3.1-6.9,6.4-9.9,10l-2.5-5.9l0-0.1l-2.8-6.6l-5.3-12.5l-5.5-12.9
		l-0.8-1.8h-4c2.7-6.8,6.5-13.2,11.4-18.7c12.5-14.3,30.3-22.7,47.5-31c0.3-0.2,0.7-0.3,1-0.5c13.2-6.4,26.5-13.2,37.8-22.6
		C636.3,385.8,643.2,374.2,648.8,359.1z"/>
	<path class="st0" d="M612.2,475.3c-7.5,6-15.8,10.8-24.4,15.1c-8.7,4.3-17.7,8-26.6,11.9c-1.5,0.6-3,1.3-4.4,1.9
		c-2.8,1.2-5.7,2.5-8.5,3.8c-0.1,0-0.1,0-0.2,0.1c0,0,0.1-0.1,0.1-0.1c0,0,0,0,0,0l-2.5-5.9l0-0.1l-2.8-6.6l-5.3-12.5l-5.5-12.9
		c1.7-1,3.4-1.9,5.2-2.8c2.8-1.3,5.6-2.4,8.5-3.3c15.8-5,33.2-4.9,49.6-7.9c4.4-0.8,9-1.8,13.7-3.2c16-4.7,32.1-13.5,37.2-33.6
		C648,439.9,628.6,462.3,612.2,475.3z"/>
	<path class="st0" d="M577.4,532c-4.7-1.8-8.9-4.5-12.8-7.7c-5-4.1-10.1-9.2-14.4-14c-0.7-0.8-1.4-1.5-2.1-2.3l0,0c0,0,0,0-0.1,0
		c0,0,0,0,0,0l-2.5-5.9l0-0.1l-2.8-6.6l-5.3-12.5c0.8-0.1,1.7-0.1,2.5-0.1c2.9,0.1,5.8,0.8,8.4,2c2.9,1.4,5.6,3.5,7.6,6
		c1.4,1.9,2.5,3.9,3.4,6.1c0.7,1.8,1.3,3.6,1.8,5.5c0.9,3.7,1.6,7.5,2.5,11.2C565.6,521.3,569,527.3,577.4,532z"/>
</g>
<g>
	<g>
		<g>
			
				<linearGradient id="SVGID_1_" gradientUnits="userSpaceOnUse" x1="621.5884" y1="472.4712" x2="718.0558" y2="390.4481" gradientTransform="matrix(-1 0 0 1 1123.5901 0)">
				<stop  offset="0" style="stop-color:#60CAE6"/>
				<stop  offset="1" style="stop-color:#D0E8F8"/>
			</linearGradient>
			<path class="st1" d="M403.4,359.1c6.8,34.2,18.9,67.2,39.8,93.6c4.4,5.6,9.2,10.8,14.4,15.7c8.7,8.2,18.7,15.1,28.1,22.5
				c2.4,1.9,4.8,3.8,7.1,5.8c0.4,0.4,0.8,0.7,1.3,1.1c3.5,3.1,6.9,6.4,9.9,10l2.5-5.9l0-0.1l2.8-6.6l5.3-12.5l5.5-12.9l0.8-1.8h4
				c-2.7-6.8-6.5-13.2-11.4-18.7c-12.5-14.3-30.3-22.7-47.5-31c-0.3-0.2-0.7-0.3-1-0.5c-13.2-6.4-26.5-13.2-37.8-22.6
				C415.9,385.8,409,374.2,403.4,359.1z"/>
			
				<linearGradient id="SVGID_2_" gradientUnits="userSpaceOnUse" x1="620.5516" y1="489.2368" x2="720.1143" y2="417.531" gradientTransform="matrix(-1 0 0 1 1123.5901 0)">
				<stop  offset="0" style="stop-color:#804D9E"/>
				<stop  offset="1" style="stop-color:#93D5F5"/>
			</linearGradient>
			<path class="st2" d="M439.9,475.3c7.5,6,15.8,10.8,24.4,15.1c8.7,4.3,17.7,8,26.6,11.9c1.5,0.6,3,1.3,4.4,1.9
				c2.8,1.2,5.7,2.5,8.5,3.8c0.1,0,0.1,0,0.2,0.1c0,0-0.1-0.1-0.1-0.1c0,0,0,0,0,0l2.5-5.9l0-0.1l2.8-6.6l5.3-12.5l5.5-12.9
				c-1.7-1-3.4-1.9-5.2-2.8c-2.8-1.3-5.6-2.4-8.5-3.3c-15.8-5-33.2-4.9-49.6-7.9c-4.4-0.8-9-1.8-13.7-3.2
				c-16-4.7-32.1-13.5-37.2-33.6C404.2,439.9,423.5,462.3,439.9,475.3z"/>
			
				<linearGradient id="SVGID_3_" gradientUnits="userSpaceOnUse" x1="612.2987" y1="483.389" x2="636.0287" y2="516.9205" gradientTransform="matrix(-1 0 0 1 1123.5901 0)">
				<stop  offset="0" style="stop-color:#EE1F60"/>
				<stop  offset="1" style="stop-color:#F7986B"/>
			</linearGradient>
			<path class="st3" d="M474.7,532c4.7-1.8,8.9-4.5,12.8-7.7c5-4.1,10.1-9.2,14.4-14c0.7-0.8,1.4-1.5,2.1-2.3l0,0c0,0,0,0,0.1,0
				c0,0,0,0,0,0l2.5-5.9l0-0.1l2.8-6.6l5.3-12.5c-0.8-0.1-1.7-0.1-2.5-0.1c-2.9,0.1-5.8,0.8-8.4,2c-2.9,1.4-5.6,3.5-7.6,6
				c-1.4,1.9-2.5,3.9-3.4,6.1c-0.7,1.8-1.3,3.6-1.8,5.5c-0.9,3.7-1.6,7.5-2.5,11.2C486.6,521.3,483.2,527.3,474.7,532z"/>
		</g>
		<path d="M214.7,479.8h-9.2v16.6v2.6v13.4h6.3h19.7v8.7h-19.3h-6.7v8.3v2v3.4v6.3v17.3h8.9H245v8.7h-58.1v-26v-6.3v-5.4v-33.1V471
			h58.4v8.8H214.7z"/>
		<path d="M260.4,567.2v-26.1v-44.4v-25.5H279v87.3h49.8v8.8H260.4z"/>
		<path d="M368.6,479.8h-9.2v16.6v2.6v13.4h6.3h19.7v8.7h-19.3h-6.7v8.3v2v3.4v6.3v17.3h8.9h30.5v8.7h-58.1v-26v-6.3v-5.4v-33.1V471
			h58.4v8.8H368.6z"/>
		<path d="M485.8,503l-27,64.2h-7.7l-31.3-71.7l-0.9-1.9c-0.5-1.1-1.1-2.6-1.9-4.5c-0.5-1.3-1.1-2.6-1.6-3.6l-6.2-14.3h19.2L437,490
			l22.8,52.7l17.7-42.7c1.3-3,2.3-5.6,3-7.8l8.3-21.1h10.4L485.8,503z"/>
		<path d="M723.2,554.4c-3.3,4-7.7,7.2-13.1,9.4c-5.5,2.3-11.8,3.4-18.8,3.4c-8.3,0-15.4-1.5-21.3-4.4c-6-2.9-10.3-6.8-12.9-11.7
			c-2.6-4.8-4.1-11.2-3.6-18.7l0.6-9.2v-27.6v-24.5h18.5v24.5v28.1c0,4.8,0,8.9,0.1,12.4c0.1,3.4,0.3,5.9,0.6,7.7
			c0.8,3.5,2.5,6.4,6,9c3.5,2.6,8.5,4,15.1,4c5,0,9.7-0.9,13.7-2.8c4.3-1.9,7.3-4.1,9-6.8c2-2.8,3.4-5.5,3.8-8.2
			c0.5-3.1,1.3-8,1.3-14.8V494v-22.8h8.7v24v29.8c0,7.8-0.8,13.6-1.4,17.3C728.6,546.6,726.1,550.7,723.2,554.4z"/>
		<path d="M775.5,567.1c-9.3-1-20.8-8-27.4-18.7l6.3-6.8c8.4,12.2,12.9,15.4,21,16.7c5.3,0.8,9.4-0.5,12.4-3
			c3.3-2.6,4.9-5.6,5.3-9.2c0.4-3.6-0.5-6.7-2.6-9.3c-2.3-2.8-6.8-6.2-14.2-10.3c-6.7-3.8-11.7-6.9-15.2-9.7
			c-3.6-2.9-6.3-6.5-8-10.7c-1.9-4.3-2.5-8.7-2-13.1c0.8-6.9,3.8-12.6,9.2-16.7c5.3-4,11.7-5.6,18.8-4.9c3.9,0.4,7.7,1.5,11,3.1
			c3.6,1.8,7,5,11.7,11.4l-7.3,6c-2.4-3.8-3-4.8-3.9-5.6c-3.1-3.8-7-5.8-11.7-6.3c-4.6-0.5-7.7,0.5-9.5,2.3c-2.3,2-3.4,4.4-3.6,6.9
			c-0.4,3.1,0.5,5.9,2.8,8.4c2.3,2.8,7,6.3,14.3,10.5c7.2,4.3,12.3,7.5,15.6,9.9c3.5,2.6,6.3,6.2,8,10.3c1.9,4.4,2.5,9,2,14.2
			c-0.9,8-4.4,14.4-10.4,19.1C791.9,566.4,784.3,568.1,775.5,567.1z"/>
		<linearGradient id="SVGID_4_" gradientUnits="userSpaceOnUse" x1="506.8549" y1="468.5678" x2="541.6761" y2="392.7351">
			<stop  offset="0" style="stop-color:#EE1F60"/>
			<stop  offset="1" style="stop-color:#FAA53D"/>
		</linearGradient>
		<path class="st4" d="M516.3,428.3c-2.5,4.9-4,9.6-4.7,14c1.5,1.5,3,3,4.4,4.6c3.9,4.5,7.2,9.4,9.8,14.7c2.6-5.3,5.9-10.3,9.8-14.7
			c1.7-1.9,3.4-3.7,5.2-5.4c-5.1-24.1,16.6-24.7,16.6-24.7c-6.2-8.3-13.3-3.2-13.3-3.2c-5.7-7.1-13.7-7.1-23.7,0.4
			s-18.2,6.3-18.2,6.3C508.9,429.4,516.3,428.3,516.3,428.3z"/>
		<linearGradient id="SVGID_5_" gradientUnits="userSpaceOnUse" x1="516.3987" y1="513.8126" x2="516.3987" y2="589.4935">
			<stop  offset="0" style="stop-color:#60CAE6"/>
			<stop  offset="1" style="stop-color:#D0E8F8"/>
		</linearGradient>
		<path class="st5" d="M523.2,510.2L523.2,510.2c0,0-20,28-13.9,48.6c6.1,20.6,12.6,34.7,9.9,44.9c0,0,7.2-11.2,5-29.9
			S520,521.1,523.2,510.2z"/>
		<linearGradient id="SVGID_6_" gradientUnits="userSpaceOnUse" x1="526.1764" y1="510.3783" x2="526.1764" y2="579.4792">
			<stop  offset="0" style="stop-color:#EE1F60"/>
			<stop  offset="1" style="stop-color:#F7986B"/>
		</linearGradient>
		<path class="st6" d="M523.2,510.2c0,0-13.6,19-4.4,45.1s10.1,27.9,9.5,35.3c0,0,6.1-12.6,8.2-27.7
			C538.6,547.7,523.6,531.5,523.2,510.2z"/>
		<g>
			<linearGradient id="SVGID_7_" gradientUnits="userSpaceOnUse" x1="550.1608" y1="472.4712" x2="646.6282" y2="390.4481">
				<stop  offset="0" style="stop-color:#60CAE6"/>
				<stop  offset="1" style="stop-color:#D0E8F8"/>
			</linearGradient>
			<path class="st7" d="M648.8,359.1c-6.8,34.2-18.9,67.2-39.8,93.6c-4.4,5.6-9.2,10.8-14.4,15.7c-8.7,8.2-18.7,15.1-28.1,22.5
				c-2.4,1.9-4.8,3.8-7.1,5.8c-0.4,0.4-0.8,0.7-1.3,1.1c-3.5,3.1-6.9,6.4-9.9,10l-2.5-5.9l0-0.1l-2.8-6.6l-5.3-12.5l-5.5-12.9
				l-0.8-1.8h-4c2.7-6.8,6.5-13.2,11.4-18.7c12.5-14.3,30.3-22.7,47.5-31c0.3-0.2,0.7-0.3,1-0.5c13.2-6.4,26.5-13.2,37.8-22.6
				C636.3,385.8,643.2,374.2,648.8,359.1z"/>
			<linearGradient id="SVGID_8_" gradientUnits="userSpaceOnUse" x1="549.124" y1="489.2368" x2="648.6867" y2="417.531">
				<stop  offset="0" style="stop-color:#804D9E"/>
				<stop  offset="1" style="stop-color:#93D5F5"/>
			</linearGradient>
			<path class="st8" d="M612.2,475.3c-7.5,6-15.8,10.8-24.4,15.1c-8.7,4.3-17.7,8-26.6,11.9c-1.5,0.6-3,1.3-4.4,1.9
				c-2.8,1.2-5.7,2.5-8.5,3.8c-0.1,0-0.1,0-0.2,0.1c0,0,0.1-0.1,0.1-0.1c0,0,0,0,0,0l-2.5-5.9l0-0.1l-2.8-6.6l-5.3-12.5l-5.5-12.9
				c1.7-1,3.4-1.9,5.2-2.8c2.8-1.3,5.6-2.4,8.5-3.3c15.8-5,33.2-4.9,49.6-7.9c4.4-0.8,9-1.8,13.7-3.2c16-4.7,32.1-13.5,37.2-33.6
				C648,439.9,628.6,462.3,612.2,475.3z"/>
			<linearGradient id="SVGID_9_" gradientUnits="userSpaceOnUse" x1="540.8712" y1="483.389" x2="564.6011" y2="516.9205">
				<stop  offset="0" style="stop-color:#EE1F60"/>
				<stop  offset="1" style="stop-color:#F7986B"/>
			</linearGradient>
			<path class="st9" d="M577.4,532c-4.7-1.8-8.9-4.5-12.8-7.7c-5-4.1-10.1-9.2-14.4-14c-0.7-0.8-1.4-1.5-2.1-2.3l0,0c0,0,0,0-0.1,0
				c0,0,0,0,0,0l-2.5-5.9l0-0.1l-2.8-6.6l-5.3-12.5c0.8-0.1,1.7-0.1,2.5-0.1c2.9,0.1,5.8,0.8,8.4,2c2.9,1.4,5.6,3.5,7.6,6
				c1.4,1.9,2.5,3.9,3.4,6.1c0.7,1.8,1.3,3.6,1.8,5.5c0.9,3.7,1.6,7.5,2.5,11.2C565.6,521.3,569,527.3,577.4,532z"/>
		</g>
		<path d="M529.2,471.1H523l-39.7,96h10.8l12.8-33.3l3.1-8.5l11.2-27.7l11.5,27.7l3.4,8.5l6.2,14.9c0,0,2.1,4.8,7.5,18.3h20.3
			L529.2,471.1z"/>
		<path d="M613.7,479.8h-12.1v60.6v26.7h-18.6v-26.7v-60.6h-10.4h-27l0.3-8.7h93.4l0.1,8.7H613.7z"/>
	</g>
	<g>
		<path d="M197.6,595.4h-3.5v6.4v1v5.2h2.4h7.6v3.3h-7.5h-2.6v3.2v0.8v1.3v2.4v6.7h3.4h11.8v3.3h-22.5v-10v-2.4v-2.1v-12.8V592h22.6
			v3.4H197.6z"/>
		<path d="M227.2,597.7h1.2h3v32.1h-5.2v-1.5c-1.4,1-3,1.5-4.8,1.5c-2.9,0-5.3-1-7.2-3.1c-1.8-2.1-2.5-4.4-2.5-7.3
			c0-2.8,0.6-5.6,2.4-7.7c1.8-1.9,4.2-3,7-3c1.8,0,3.5,0.6,5,1.6v-12.7H227.2z M226.2,614.3c-1.3-1.2-2.8-2.2-4.5-2.2
			c-1.4,0-2.4,0.5-3.2,1.6c-0.8,1.1-1.3,2.8-1.3,5.3c0,2.7,0.5,4.6,1.4,5.9c0.9,1.2,2,1.8,3.5,1.8c0.9,0,1.7-0.3,2.4-0.8
			c0.7-0.5,1.4-1,1.6-1.6V614.3z"/>
		<path d="M251.9,629.3v-1.6c-1.6,1.4-3.4,2.1-5.5,2.1c-1.4,0-2.6-0.3-3.6-0.9c-1.1-0.6-1.8-1.5-2.3-2.5c-0.4-1-0.6-2.3-0.6-3.9v-6
			v-7h5.3v13.1c0,1.2,0,1.9,0.1,2.3c0,0.2,0.2,0.5,0.7,0.8c0.4,0.2,0.8,0.4,1.4,0.4c0.8,0,1.6-0.3,2.5-0.9c0.9-0.6,1.4-1.3,1.6-1.8
			c0.3-0.6,0.5-1.6,0.5-3v-4v-7h5.2v12.5v7.2H251.9z"/>
		<path d="M268,627.1c-1.9-1.9-2.9-4.5-2.9-7.5c0-3.1,0.9-5.6,2.9-7.5c1.9-1.9,4.3-2.8,7-2.8c2.3,0,4.3,0.5,6.7,2.5l-2.1,2.1
			c-1.5-1.1-2.4-1.4-3.6-1.4c-1.8,0-3,0.6-3.8,1.8c-0.8,1.2-1.3,2.9-1.3,5.2c0,2.2,0.5,3.9,1.3,5.1c0.8,1.2,2,1.8,3.8,1.8
			c1.3,0,2.2-0.3,3.6-1.4l2.1,2.1c-2.4,2-4.4,2.5-6.7,2.5C272.3,629.9,269.9,628.9,268,627.1z"/>
		<path d="M298.8,627.8v-0.3c-1.7,1.1-3.9,2.1-6,2.1c-3,0-5.1-3.3-5.1-5.2c0-1.8,0.5-3,2.2-4.4c1.5-1.2,3.6-2.3,6.2-3.3l2.6-1.1
			v-0.1c0-1.2-0.1-1.9-0.2-2.3c0-0.2-0.2-0.5-0.8-0.8c-0.4-0.3-1.1-0.5-2-0.5c-1.5,0-2.3,0.3-3.8,1.4l-2.3-2.3
			c2.5-1.6,4.2-2.1,6.6-2.1c1.9,0,3.5,0.3,4.8,1c1.1,0.6,2,1.5,2.4,2.5c0.4,0.9,0.6,2.2,0.6,3.8v7.1v6.6c0,0-1.2,0-5.3,0V627.8z
			 M298.8,619l-0.8,0.3c-3.6,1.5-4.9,3.1-4.9,4.7c0,0.7,0.2,1.2,0.4,1.5c0.2,0.3,0.6,0.4,1,0.4s1.1-0.1,1.8-0.5
			c0.7-0.3,1.5-0.9,2.4-1.6V619z"/>
		<path d="M320.3,629.9c-1.3,0-2.4-0.3-3.3-1.1c-0.9-0.7-1.6-1.6-1.8-2.7c-0.2-1-0.3-2.5-0.3-4.5v-8.8h-2.6v-3.2h2.6v-5.5h5.2v5.5
			h5.3v3.2H320v9.4c0,1.6,0.1,2.6,0.2,3c0.1,0.3,0.2,0.6,0.5,0.8c0.3,0.2,0.6,0.3,0.8,0.3c0.5,0,1.1-0.3,2.3-2.1l2.4,1.5
			c-0.9,2-1.7,2.9-2.8,3.5C322.4,629.6,321.4,629.9,320.3,629.9z"/>
		<path d="M338.3,617.6c0,0.3,0,0.6,0,0.8c0,3,0.5,5,1.3,6.4c0.7,1.2,1.8,1.8,3.3,1.8c1.9,0,3.2-0.7,4.8-3.2l2.3,2.3
			c-1.1,1.6-1.8,2.2-2.7,2.8c-1.5,0.9-3.2,1.4-4.9,1.4c-1.7,0-3.3-0.4-4.8-1.3c-1.5-0.8-2.7-2-3.6-3.5c-1-1.6-1.4-3.4-1.4-5.5
			c0-3,0.9-5.6,2.7-7.6c1.8-2,4.2-3.1,6.9-3.1c2.5,0,4.6,0.8,6.1,2.5c1.5,1.6,2,3.3,2,6.3H338.3z M338.7,614.6h6.6
			c-0.4-1.2-1.4-2.6-3.3-2.6C340.4,612,339.3,612.7,338.7,614.6z"/>
		<path d="M373.8,622.8c-1.1,0-1.9-0.4-2.7-1.2c-0.7-0.7-1.1-1.6-1.1-2.6c0-1,0.4-1.9,1.1-2.6c0.7-0.7,1.6-1.1,2.7-1.1
			c1,0,1.9,0.4,2.7,1.1c0.7,0.7,1.1,1.6,1.1,2.6c0,1-0.3,1.9-1.1,2.7C375.7,622.4,374.8,622.8,373.8,622.8z"/>
		<path d="M409.1,595.4h-3.5v6.4v1v5.2h2.4h7.6v3.3h-7.5h-2.6v3.2v0.8v1.3v2.4v6.7h3.4h11.8v3.3h-22.5v-10v-2.4v-2.1v-12.8V592h22.6
			v3.4H409.1z"/>
		<path d="M451.4,629.1v-7.2V616c0-1.2-0.1-2-0.2-2.5c-0.1-0.3-0.2-0.6-0.7-0.9c-0.3-0.2-0.8-0.4-1.6-0.4c-1.9,0-3.5,1.8-4.6,3.2
			v6.6v7.2H439v-7.2V617c0-1.5,0-2.5-0.1-3.2c0-0.4-0.3-0.8-0.7-1.2c-0.4-0.3-0.9-0.5-1.6-0.5c-1.7,0-3.4,1.6-4.5,2.8v7v7.2h-5.3
			v-7.2v-5.3v-8.2h5.3v2.1c1.6-1.4,3.5-2.1,5.7-2.1c1.6,0,3.1,0.4,4.2,1.2c0.7,0.5,1.2,1.2,1.6,1.9c1.8-1.7,4-3.1,6.6-3.1
			c1.6,0,2.9,0.4,4.1,1.2c1.1,0.7,1.9,1.6,2.2,2.8c0.2,1,0.3,2.4,0.3,4.2v5.3v7.2H451.4z"/>
		<path d="M467.6,597.7h1.2h1.1v12.7c1.5-1,3.2-1.6,5-1.6c2.8,0,5.1,1,6.9,3c1.9,2,2.5,4.9,2.5,7.7c0,2.9-0.6,5.2-2.5,7.3
			c-1.8,2-4.3,3.1-7.2,3.1c-1.7,0-3.4-0.4-4.8-1.5v1.5h-5.2v-32.1H467.6z M474.4,612.2c-1.8,0-3.3,1-4.5,2.2v10c0.2,0.5,1,1,1.6,1.6
			c0.7,0.5,1.5,0.8,2.5,0.8c1.5,0,2.6-0.6,3.5-1.8c0.9-1.3,1.4-3.2,1.4-5.9c0-2.5-0.5-4.2-1.3-5.3
			C476.7,612.7,475.7,612.2,474.4,612.2z"/>
		<path d="M502.9,613.1c-2.1-1.3-2.9-1.2-4.2,0c-0.8,0.7-1.2,1.4-1.4,2.1c-0.2,0.8-0.3,1.9-0.3,3.5v3.2v7.2h-5.3v-7.2v-5v-8.5h5v2
			c1.9-1.7,4.6-2.2,7.7-0.5L502.9,613.1z"/>
		<path d="M519.4,627.8v-0.3c-1.7,1.1-3.9,2.1-6,2.1c-3,0-5.1-3.3-5.1-5.2c0-1.8,0.5-3,2.2-4.4c1.5-1.2,3.6-2.3,6.2-3.3l2.6-1.1
			v-0.1c0-1.2-0.1-1.9-0.2-2.3c0-0.2-0.2-0.5-0.8-0.8c-0.4-0.3-1.1-0.5-2-0.5c-1.5,0-2.3,0.3-3.8,1.4l-2.3-2.3
			c2.5-1.6,4.2-2.1,6.6-2.1c1.9,0,3.5,0.3,4.8,1c1.1,0.6,2,1.5,2.4,2.5c0.4,0.9,0.6,2.2,0.6,3.8v7.1v6.6c0,0-1.2,0-5.3,0V627.8z
			 M519.4,619l-0.8,0.3c-3.6,1.5-4.9,3.1-4.9,4.7c0,0.7,0.2,1.2,0.4,1.5c0.2,0.3,0.6,0.4,1,0.4c0.4,0,1.1-0.1,1.8-0.5
			c0.7-0.3,1.5-0.9,2.4-1.6V619z"/>
		<path d="M535.4,627.1c-1.9-1.9-2.9-4.5-2.9-7.5c0-3.1,0.9-5.6,2.9-7.5c1.9-1.9,4.3-2.8,7-2.8c2.3,0,4.3,0.5,6.7,2.5l-2.1,2.1
			c-1.5-1.1-2.4-1.4-3.6-1.4c-1.8,0-3,0.6-3.8,1.8c-0.8,1.2-1.3,2.9-1.3,5.2c0,2.2,0.5,3.9,1.3,5.1c0.8,1.2,2,1.8,3.8,1.8
			c1.3,0,2.2-0.3,3.6-1.4l2.1,2.1c-2.4,2-4.4,2.5-6.7,2.5C539.7,629.9,537.3,628.9,535.4,627.1z"/>
		<path d="M559.1,617.6c0,0.3,0,0.6,0,0.8c0,3,0.5,5,1.3,6.4c0.7,1.2,1.8,1.8,3.3,1.8c1.9,0,3.2-0.7,4.8-3.2l2.3,2.3
			c-1.1,1.6-1.8,2.2-2.7,2.8c-1.5,0.9-3.2,1.4-4.9,1.4c-1.7,0-3.3-0.4-4.8-1.3c-1.5-0.8-2.7-2-3.6-3.5c-1-1.6-1.4-3.4-1.4-5.5
			c0-3,0.9-5.6,2.7-7.6c1.8-2,4.2-3.1,6.9-3.1c2.5,0,4.6,0.8,6.1,2.5c1.5,1.6,2,3.3,2,6.3H559.1z M559.5,614.6h6.6
			c-0.4-1.2-1.4-2.6-3.3-2.6C561.2,612,560,612.7,559.5,614.6z"/>
		<path d="M594.6,622.8c-1.1,0-1.9-0.4-2.7-1.2c-0.7-0.7-1.1-1.6-1.1-2.6c0-1,0.4-1.9,1.1-2.6c0.7-0.7,1.6-1.1,2.7-1.1
			s1.9,0.4,2.7,1.1c0.7,0.7,1.1,1.6,1.1,2.6c0,1-0.3,1.9-1.1,2.7C596.4,622.4,595.6,622.8,594.6,622.8z"/>
		<path d="M629.9,595.4h-3.5v6.4v1v5.2h2.4h7.6v3.3h-7.5h-2.6v3.2v0.8v1.3v2.4v6.7h3.4h11.8v3.3h-22.5v-10v-2.4v-2.1v-12.8V592h22.6
			v3.4H629.9z"/>
		<path d="M672.2,629.1v-7.2V616c0-1.2-0.1-2-0.2-2.5c-0.1-0.3-0.2-0.6-0.7-0.9c-0.3-0.2-0.8-0.4-1.6-0.4c-1.9,0-3.5,1.8-4.6,3.2
			v6.6v7.2h-5.3v-7.2V617c0-1.5,0-2.5-0.1-3.2c0-0.4-0.3-0.8-0.7-1.2c-0.4-0.3-0.9-0.5-1.6-0.5c-1.7,0-3.4,1.6-4.5,2.8v7v7.2h-5.3
			v-7.2v-5.3v-8.2h5.3v2.1c1.6-1.4,3.5-2.1,5.7-2.1c1.6,0,3.1,0.4,4.2,1.2c0.7,0.5,1.2,1.2,1.6,1.9c1.8-1.7,4-3.1,6.6-3.1
			c1.6,0,2.9,0.4,4.1,1.2c1.1,0.7,1.9,1.6,2.2,2.8c0.2,1,0.3,2.4,0.3,4.2v5.3v7.2H672.2z"/>
		<path d="M695.4,630.9c-1.7,0-3.3-0.5-4.8-1.5v4.4v7.1h-5.2v-7.1v-15.9v-8.2h5.2v1.6c1.6-1.1,3.3-1.6,5.1-1.6c2.7,0,5,1,6.8,2.9
			c1.8,1.9,2.7,4.5,2.7,7.5c0,3-0.9,5.5-2.7,7.6C700.8,629.9,698.4,630.9,695.4,630.9z M694.9,613.2c-1.7,0-3.1,1-4.2,2.3v9.8
			c0.6,0.7,1.3,1.2,1.9,1.6c0.7,0.4,1.4,0.6,2.2,0.6c1.3,0,2.4-0.5,3.4-1.7c0.9-1.1,1.5-3,1.5-5.9c0-2.5-0.5-4.2-1.5-5.1
			C697.2,613.7,696.1,613.2,694.9,613.2z"/>
		<path d="M722.5,629.9c-2.7,0-5-1-7-2.9c-1.9-1.9-2.9-4.6-2.9-7.7c0-2.9,0.9-5.4,2.8-7.4c1.9-2,4.3-3.1,7-3.1c2.8,0,5.1,1,7,3.1
			c1.9,2,2.8,4.5,2.8,7.4c0,3.2-0.9,5.8-2.9,7.7C727.5,628.9,725.2,629.9,722.5,629.9z M722.5,612c-1.5,0-2.4,0.5-3.2,1.5
			c-0.7,1.1-1.4,3-1.4,5.9c0,3,0.7,4.9,1.5,5.9c0.7,0.9,1.7,1.4,3.1,1.4c1.5,0,2.4-0.5,3.2-1.4c0.7-1,1.4-2.9,1.4-5.9
			c0-2.9-0.7-4.9-1.4-5.9C724.9,612.5,723.9,612,722.5,612z"/>
		<path d="M761.3,629.9h-2.7l-4.9-10.9l-4.8,10.9h-2.6l-9.2-20.3h5.7l5.9,13.2l4.5-10.4h3.2l4.7,10.4l5.8-13.2h3.4L761.3,629.9z"/>
		<path d="M781.8,617.6c0,0.3,0,0.6,0,0.8c0,3,0.5,5,1.3,6.4c0.7,1.2,1.8,1.8,3.3,1.8c1.9,0,3.2-0.7,4.8-3.2l2.3,2.3
			c-1.1,1.6-1.8,2.2-2.7,2.8c-1.5,0.9-3.2,1.4-4.9,1.4c-1.7,0-3.3-0.4-4.8-1.3c-1.5-0.8-2.7-2-3.6-3.5c-1-1.6-1.4-3.4-1.4-5.5
			c0-3,0.9-5.6,2.7-7.6c1.8-2,4.2-3.1,6.9-3.1c2.5,0,4.6,0.8,6.1,2.5c1.5,1.6,2,3.3,2,6.3H781.8z M782.1,614.6h6.6
			c-0.4-1.2-1.4-2.6-3.3-2.6C783.8,612,782.7,612.7,782.1,614.6z"/>
		<path d="M811.6,613.1c-2.1-1.3-2.9-1.2-4.2,0c-0.8,0.7-1.2,1.4-1.4,2.1c-0.2,0.8-0.3,1.9-0.3,3.5v3.2v7.2h-5.3v-7.2v-5v-8.5h5v2
			c1.9-1.7,4.6-2.2,7.7-0.5L811.6,613.1z"/>
	</g>
</g>
</svg>
